<svg xmlns="http://www.w3.org/2000/svg" width="116" height="117" fill="none" viewBox="0 0 116 117" class="hover:fill-primary-brown"><rect width="113" height="113" rx="56.5"></rect><rect width="113" height="113" x="3" y="4" rx="56.5"></rect><rect width="112" height="112" x="0.5" y="0.5" fill="#FCB2B2" stroke="#462B34" rx="56"></rect><path fill="#EA6B6B" stroke="#462B34" d="M47.49 27.13c.365.905.725 1.786 1.078 2.653.859 2.101 1.68 4.113 2.445 6.151h0l.001.003c.145.379.296.728.47 1.009.172.278.399.544.721.683.341.148.7.117 1.047-.02.335-.132.69-.372 1.074-.698.661-.546 1.13-.92 1.492-1.142.376-.23.515-.219.565-.204.065.02.21.11.453.526.233.398.495.978.856 1.793h0l.002.004c.382.842.763 1.673 1.144 2.502.378.822.755 1.643 1.133 2.476.064.179.177.36.338.618l.083.133.487.788.391-.84c.971-2.09 1.927-4.134 2.892-6.197.701-1.5 1.407-3.01 2.127-4.554 1.183 2.1 2.245 3.984 3.381 5.98l.256.45.441-.272c.93-.574 1.617-1.337 2.257-2.091l.246-.293c.405-.48.8-.95 1.25-1.392 2.11 6.337 1.658 12.217-2.137 17.578-2.761 3.893-5.328 7.851-5.427 13.019h0v.01c0 1.136-.772 2.05-2.058 2.219a.682.682 0 00-.436-.16.64.64 0 00-.452.18H49.305a.77.77 0 00-.485-.18.7.7 0 00-.43.146c-.722-.134-1.224-.428-1.56-.823-.376-.442-.59-1.066-.612-1.876-.1-4.425-1.975-8.035-4.532-11.394l-.002-.003c-4.787-6.199-5.282-12.913-2.423-20.091.514.402.947.729 1.317.959.479.297.968.51 1.477.412.51-.098.885-.476 1.221-.93.339-.458.716-1.108 1.19-1.925l.017-.03h0l.002-.003c.95-1.666 1.899-3.296 3.005-5.174zM51.245 85.503h-.001c-1.09-.59-1.726-1.584-2.022-2.801.167-.191.265-.408.31-.634H63.327a1.226 1.226 0 00.3.628c-.616 1.916-1.73 3.27-3.62 3.47-.362.034-.72.072-1.077.109-2.715.283-5.264.55-7.684-.772zM64.75 77.829l-.002.01v.01c-.019.479-.193.815-.468 1.035-.283.227-.733.379-1.384.36-1.668-.146-3.37-.127-5.029-.11-.546.007-1.087.013-1.622.013H49.815c-.593 0-1.032-.085-1.319-.27-.246-.158-.448-.434-.467-1.025-.02-.609.175-.883.412-1.038.284-.187.731-.272 1.327-.272H63.057c.599 0 1.047.141 1.323.356.253.198.404.488.37.93zM64.1 73.345a7.609 7.609 0 01-.04.047c-5.1.273-10.202.272-15.304-.003l-.326-.247c-.144-.446-.228-.8-.257-1.082-.032-.312.01-.486.066-.588.05-.09.146-.185.372-.263.236-.083.58-.135 1.07-.146 4.47-.048 8.99-.048 13.462 0 .495.011.848.071 1.088.162.233.087.332.191.38.285.052.103.085.276.031.572-.051.282-.175.637-.383 1.078-.06.065-.112.127-.155.18l-.005.005z"></path></svg>