<svg xmlns="http://www.w3.org/2000/svg" width="117" height="117" fill="none" viewBox="0 0 117 117" class="hover:fill-primary-brown"><rect width="113" height="113" x="4" y="4" rx="56.5"></rect><rect width="113" height="113" x="4" y="4" rx="56.5"></rect><rect width="112" height="112" x="0.5" y="0.5" fill="#FCB2B2" stroke="#462B34" rx="56"></rect><g fill="#EA6B6B" stroke="#462B34" clip-path="url(#clip0_3922_21847)"><path d="M61.667 68.083h0v-.006c0-.87.134-1.6.383-2.095.24-.475.55-.683.947-.683a.89.89 0 01.536.158c.142.1.274.261.388.498.232.485.347 1.215.336 2.116h0v.006c0 .993-.142 1.719-.38 2.178-.223.428-.508.6-.88.6-.386 0-.7-.198-.942-.656-.254-.48-.4-1.206-.388-2.116z"></path><path d="M79.25 61.755v.001c.522 3.675.226 7.273-.973 10.754-1.667 4.63-4.815 7.932-9.138 10.144h0a24.79 24.79 0 01-8.265 2.567c-2.447.303-4.89.372-7.33.163-4.573-.417-8.764-1.897-12.408-4.73l-.001-.002c-3.661-2.83-6.052-6.55-7.092-11.13v-.002c-.97-4.178-.478-8.27 1.134-12.245h0c1.358-3.365 3.466-6.206 6.107-8.64v-.001c.298-.276.598-.551.9-.828 1.511-1.388 3.047-2.799 4.418-4.373a72.211 72.211 0 001.97-2.352l.496-.61.012-.014.01-.014a.414.414 0 01.032 0H63.626a.657.657 0 00.004.006c2.294 2.882 4.91 5.449 7.654 7.863h0c2.683 2.36 5.033 4.967 6.497 8.27a19.614 19.614 0 011.468 5.173zM52.456 74.26h.297l.142-.26L63.204 55.11l.404-.74h-3.41l-.142.261-10.285 18.89-.402.74h3.088zm5.083-6.09v.004c.012 1.826.591 3.332 1.57 4.387.979 1.056 2.33 1.628 3.818 1.628 1.426 0 2.8-.546 3.818-1.629 1.019-1.083 1.65-2.667 1.662-4.693v-.003c0-1.647-.466-3.127-1.385-4.204-.927-1.087-2.28-1.72-3.956-1.72-1.675 0-3.071.682-4.041 1.82-.964 1.131-1.486 2.685-1.486 4.41zm-7.4-13.8c-1.674 0-3.07.682-4.04 1.82-.964 1.131-1.486 2.685-1.486 4.41 0 1.816.574 3.324 1.555 4.382.983 1.06 2.346 1.637 3.856 1.637 1.428 0 2.802-.554 3.817-1.639 1.015-1.086 1.64-2.671 1.64-4.686 0-1.647-.466-3.127-1.385-4.204-.927-1.087-2.28-1.72-3.956-1.72z"></path><path d="M51.332 60.477h0v.006c0 .993-.142 1.719-.38 2.178-.223.428-.508.6-.88.6-.386 0-.7-.197-.946-.658-.256-.48-.407-1.208-.407-2.12 0-.866.14-1.598.391-2.093.244-.479.555-.685.939-.685.412 0 .713.206.937.668.238.489.358 1.218.346 2.104zM62.909 36.252l.004-.007.315-.537c.445-.761.895-1.532 1.39-2.269 1.085-1.644 2.25-3.338 4.093-4.464.402-.25.684-.672.82-1.188l.003-.008.003-.009c.078-.259.104-.543.06-.735l-.002-.008-.001-.009c-.108-.566-.76-1.01-1.373-.878l-.01.002h0c-.463.09-.91.257-1.399.439l-.285.105-.002.001c-.61.22-1.233.322-1.848.234-.618-.089-1.195-.366-1.714-.852l-.087-.072a3.4 3.4 0 01-.416-.392c-.541-.586-1.245-.84-2.099-1.046-.456-.096-.84-.049-1.184.185l-.005.003h0c-.442.293-.842.61-1.283.963v.001c-.117.093-.228.195-.354.31l-.1.092c-.158.143-.338.3-.537.437a1.047 1.047 0 01-.715.196.691.691 0 01-.33-.12c-.097-.066-.2-.133-.305-.202-.458-.302-.979-.644-1.41-1.083l-.004-.004h0c-.8-.834-2.201-1.032-3.114-.425l-.004.002h0a8.505 8.505 0 00-.785.596l-.18.151c-.207.174-.424.356-.646.526-.226.179-.462.34-.729.476l-.011.005h0c-.893.426-1.752.357-2.595.071-.744-.236-1.465-.457-2.176-.545h-.002c-.697-.089-1.29.594-1.057 1.383.2.606.532 1.066 1.014 1.455 1.182.92 2.402 1.932 3.263 3.31.81 1.271 1.622 2.547 2.41 3.822m13.387.088l-13.386-.087s0 0 0 0m13.386.087l-.004.008a.205.205 0 01-.026.039s0 0 0 0a.246.246 0 01-.068.007H56.233c-.713 0-1.43-.003-2.15-.005-1.447-.006-2.906-.011-4.362.005a.387.387 0 01-.099-.011h0c-.002-.001-.03-.02-.1-.13m13.387.087l-13.386-.088m13.36.134h-.002.002z"></path></g><defs><clipPath id="clip0_3922_21847"><path fill="#fff" d="M0 0H47V62H0z" transform="translate(33 24)"></path></clipPath></defs></svg>