<svg xmlns="http://www.w3.org/2000/svg" width="117" height="117" fill="none" viewBox="0 0 117 117" class="hover:fill-primary-brown"><rect width="113" height="113" x="4" y="4" rx="56.5"></rect><rect width="113" height="113" x="4" y="4" rx="56.5"></rect><rect width="112" height="112" x="0.5" y="0.5" fill="#FCB2B2" stroke="#462B34" rx="56"></rect><path fill="#EA6B6B" stroke="#462B34" d="M41.219 26.675c.116-.022.235-.046.352-.072.418 1.237.9 2.175 1.523 2.824.722.752 1.595 1.081 2.645 1.1h.002c1.321.017 2.327-.403 3.077-1.154.647-.65 1.074-1.516 1.375-2.468.513.013 1.007.018 1.492.02l.118.144a18.826 18.826 0 01.689.911c.177.244.36.495.548.737.434.558.928 1.112 1.545 1.503h0l.006.004c2.011 1.232 4.3.259 5.484-1.635l.002-.002c.293-.475.494-.8.673-1.036.174-.229.296-.33.41-.386.117-.057.28-.093.583-.095.243 0 .542.02.94.053.084.284.179.585.274.869l.003.01.004.009c.305.805.755 1.465 1.362 1.951.608.487 1.347.78 2.197.888h0l.012.001c1.699.176 3.479-.451 4.043-2.205.296-.853.67-1.186 1.069-1.328.39-.138.887-.129 1.558-.028.224.923.61 1.769 1.233 2.436.623.665 1.454 1.123 2.52 1.32a1648.43 1648.43 0 00-.222 26.133v.004c-.017 7.219-.033 14.423-.224 26.115-1.227.354-2.083.708-2.692 1.368-.602.652-.912 1.551-1.22 2.832a73.452 73.452 0 01-.983-.018 88.198 88.198 0 00-.537-.01c-.147-.251-.29-.502-.43-.75-.555-.977-1.089-1.917-1.786-2.689h0l-.006-.007c-.328-.349-.809-.543-1.255-.654a5.862 5.862 0 00-1.378-.158c-1.097 0-2.002.369-2.71 1.16-.625.698-1.068 1.693-1.396 2.962-.292-.003-.585-.008-.88-.014h-.003c-.304-.006-.61-.012-.919-.015-.457-1.443-.983-2.511-1.676-3.222-.777-.798-1.72-1.104-2.852-1.067h0-.007c-1.14.054-2.088.43-2.814 1.22-.642.7-1.073 1.681-1.35 2.935-.307-.003-.618-.009-.93-.015h-.004c-.316-.005-.635-.011-.952-.014-.326-1.384-.766-2.432-1.421-3.15-.743-.812-1.706-1.14-2.892-1.14-1.15 0-2.119.36-2.873 1.154-.668.704-1.131 1.711-1.439 3.001-.312-.003-.623-.008-.94-.014h-.022a109.87 109.87 0 00-.968-.015c-.1-.933-.369-1.761-.854-2.456-.562-.804-1.383-1.388-2.463-1.76a.464.464 0 01-.04-.054 1.615 1.615 0 01-.156-.334 2.828 2.828 0 01-.164-.853c.078-6.127.09-10.174.1-14.1.013-4.403.026-8.655.13-15.52.082-4.914.074-7.504.066-10.092h0c-.008-2.584-.017-5.167.066-10.072h0v-.008c0-.417 0-.848.016-1.346.889-.185 1.621-.529 2.223-1.04.68-.576 1.16-1.337 1.524-2.24.01-.01.05-.045.158-.093.148-.065.354-.122.614-.177.173-.037.35-.07.535-.104l.287-.054zM43.473 57c0 7.022 5.715 12.71 12.76 12.71 7.043 0 12.76-5.654 12.76-12.677 0-7.022-5.715-12.71-12.76-12.71-7.043 0-12.76 5.654-12.76 12.677z"></path><path fill="#EA6B6B" stroke="#462B34" d="M56.657 50.706l2.04 3.177.105.164.189.05 3.652.958-2.391 2.922-.123.151.01.194.217 3.77-3.518-1.37-.181-.072-.182.071-3.518 1.37.217-3.769.01-.194-.122-.15-2.391-2.923 3.651-.959.189-.05.105-.163 2.04-3.177z"></path></svg>