<svg xmlns:xlink="http://www.w3.org/1999/xlink" width="40" height="42" fill="#B9C8FF" xmlns="http://www.w3.org/2000/svg" class=" 
                  fill-custom-blue animate-spin  "><path d="m20.273 1.616 3.969 5.873.252.375.425-.155 6.663-2.419-.242 7.084-.016.452.435.125 6.812 1.958-4.36 5.59-.278.356.278.356 4.36 5.589-6.812 1.959-.435.125.016.451.242 7.084L24.919 34l-.425-.153-.252.374-3.969 5.873-3.968-5.873-.253-.374-.424.154-6.663 2.42.242-7.085.016-.451-.435-.125-6.812-1.96 4.36-5.588.278-.356-.278-.357-4.36-5.589 6.812-1.958.435-.125-.016-.452-.242-7.084 6.663 2.42.424.154.253-.375 3.968-5.873Z" stroke="#462B34" stroke-width="1.158px" fill="#B9C8FF"></path></svg>