<svg xmlns="http://www.w3.org/2000/svg" width="107" height="113" fill="none" viewBox="0 0 107 113"><circle cx="55.622" cy="29.37" r="25.858" fill="#462B34"></circle><path fill="#462B34" d="M55.62 60.6C30.623 60.6 9.794 78.57 5.19 102.374c-1.05 5.422 3.528 9.942 9.051 9.942H97c5.523 0 10.101-4.52 9.052-9.942C101.446 78.569 80.618 60.6 55.62 60.6z"></path><circle cx="51.381" cy="26.541" r="25.358" fill="#FFF5B7" stroke="#462B34"></circle><path fill="#FFF5B7" stroke="#462B34" d="M1.44 99.64C6 76.065 26.627 58.273 51.38 58.273c24.751 0 45.38 17.792 49.94 41.369.977 5.047-3.28 9.347-8.56 9.347H10c-5.28 0-9.537-4.3-8.56-9.347z"></path><path fill="#462B34" d="M81.018 77.883V69.04l12.862-2.412 7.234 2.412v4.823l-4.823 8.039-8.842 1.608-6.431-5.627z"></path><path fill="#3DF089" d="M91 61c-7.714 0-14 6.286-14 14s6.286 14 14 14 14-6.286 14-14-6.286-14-14-14zm6.692 10.78l-7.938 7.938a1.049 1.049 0 01-1.484 0l-3.962-3.962a1.056 1.056 0 010-1.484 1.056 1.056 0 011.484 0l3.22 3.22 7.196-7.196a1.056 1.056 0 011.484 0 1.056 1.056 0 010 1.484z"></path><path stroke="#462B34" d="M91 61c-7.714 0-14 6.286-14 14s6.286 14 14 14 14-6.286 14-14-6.286-14-14-14zm6.692 10.78l-7.938 7.938a1.049 1.049 0 01-1.484 0l-3.962-3.962a1.056 1.056 0 010-1.484 1.056 1.056 0 011.484 0l3.22 3.22 7.196-7.196a1.056 1.056 0 011.484 0 1.056 1.056 0 010 1.484z"></path><circle cx="91" cy="75" r="14.5" stroke="#462B34"></circle></svg>