<svg xmlns="http://www.w3.org/2000/svg" width="98" height="98" fill="none" viewBox="0 0 98 98"><circle cx="50.5" cy="50.5" r="47.5" fill="#462B34"></circle><circle cx="47.5" cy="47.5" r="47" fill="#FDFDFD" stroke="#462B34"></circle><g fill="#826770" clip-path="url(#clip0_3832_20444)"><path d="M51.04 73.993v-10.39h-7.813v10.39h-.416c-3.48 0-6.966-.007-10.446.007-.36 0-.487-.132-.487-.45 0-.126-.007-.257-.007-.382v-46.92c0-.159 0-.325.021-.485a.886.886 0 01.798-.756c.106-.007.212-.007.317-.007h28.225c.177 0 .36 0 .523.049.416.124.628.464.628.97v47.232c0 .742 0 .742-.755.742H51.04zm-5.681-39.49h3.31v-3.038c0-.243-.17-.201-.317-.201h-2.71c-.093 0-.177.02-.276.034-.007 1.076-.007 2.123-.007 3.205zm0 10.183h3.289v-3.219h-3.29v3.219zm.007 6.957v3.233h3.275v-3.233h-3.275zm-7.954-6.95h3.282v-3.219h-3.282v3.219zm19.176 0v-3.219h-3.275v3.219h3.275zm-19.17 6.95v3.219h3.276v-3.219h-3.275zm15.902 0v3.219h3.275v-3.219H53.32zM40.687 34.517v-3.233h-3.275v3.233h3.275zm12.626-3.233v3.226h3.268v-3.225h-3.268zM63.35 66.626V30.972h12.535c.79 0 1.122.333 1.122 1.117v33.462c0 .75-.332 1.09-1.08 1.09H63.681c-.105 0-.211-.008-.331-.015zm7.065-29.168h-3.29v3.205h3.29v-3.205zm.007 19.478h-3.29v3.211h3.29v-3.211zm-3.282-9.74v3.226h3.26v-3.225h-3.26zM30.904 34.378v32.249c-.14.007-.268.013-.395.013-4.094 0-8.187-.013-12.28.014-.947.007-1.229-.506-1.229-1.207.014-9.96.007-19.928.007-29.89 0-.873.318-1.179 1.214-1.179h12.683zm-3.882 4.8h-3.289v3.212h3.29v-3.212zm-3.296 12.93h3.282v-3.211h-3.282v3.211zm3.296 6.548H23.74v3.205h3.282v-3.205z"></path></g><defs><clipPath id="clip0_3832_20444"><path fill="#fff" d="M0 0H60V49H0z" transform="translate(17 25)"></path></clipPath></defs></svg>