<svg xmlns="http://www.w3.org/2000/svg" width="263" height="83" fill="none" viewBox="0 0 263 83"><rect width="263" height="79" y="4" fill="#462B34" rx="39.5"></rect><rect width="262" height="78" x="0.5" y="0.5" fill="#FDFDFD" stroke="#462B34" rx="39"></rect><path fill="#EAA24B" d="M39 56.994V23h7.91v14.036h15.58V23h7.91v33.994h-7.91V42.861H46.91v14.133H39zM107.338 56.994V23h18.218c2.639 0 4.935.374 6.892 1.118 1.957.744 3.476 1.797 4.555 3.156 1.079 1.359 1.618 2.962 1.618 4.806v.583c0 2.038-.6 3.691-1.799 4.953-1.2 1.262-2.677 2.185-4.435 2.768v.873c1.597.065 2.838.51 3.715 1.336.878.826 1.319 1.918 1.319 3.28v11.121h-7.91V46.796c0-.776-.248-1.409-.748-1.894-.501-.485-1.328-.73-2.487-.73h-11.028v12.822h-7.91zm7.91-18.649h9.469c1.878 0 3.346-.411 4.405-1.238 1.059-.826 1.589-1.918 1.589-3.277v-.485c0-1.359-.521-2.453-1.559-3.28-1.039-.826-2.519-1.238-4.435-1.238h-9.469v9.518zM142.678 56.994V23h7.91v33.994h-7.91zM154.633 56.994V23h15.042l8.331 29.623h1.079V23h7.79v33.994h-15.042l-8.331-29.623h-1.079v29.623h-7.79zM206.381 56.994c-2.876 0-5.485-.506-7.822-1.518-2.338-1.011-4.195-2.491-5.573-4.435-1.378-1.945-2.068-4.318-2.068-7.121v-7.845c0-4.204 1.518-7.433 4.555-9.69C198.509 24.13 202.625 23 207.817 23c5.193 0 9.139 1.068 11.956 3.2 2.817 2.133 4.224 5.021 4.224 8.663v.185h-7.79v-.373c0-1.15-.31-2.195-.927-3.13-.621-.933-1.551-1.674-2.788-2.218-1.238-.544-2.797-.818-4.675-.818-2.796 0-4.993.67-6.593 2.01-1.598 1.338-2.396 3.158-2.396 5.465v8.032c0 2.274.798 4.104 2.396 5.486 1.597 1.386 3.835 2.077 6.713 2.077 2.879 0 4.976-.591 6.292-1.774 1.32-1.182 1.978-2.676 1.978-4.483v-.467h-9.949v-5.23h17.739v17.372h-7.31v-3.783h-1.08c-.281.53-.728 1.092-1.348 1.68-.62.591-1.548 1.091-2.788 1.494-1.237.403-2.937.606-5.093.606h.003zM77.96 57v-5.374h16.209c1.12 0 1.681-.488 1.681-1.465v-6.106h-1.079c-.322.553-.822 1.106-1.5 1.662-.682.553-1.6 1.009-2.762 1.367-1.161.36-2.641.539-4.444.539-2.322 0-4.352-.433-6.093-1.294-1.74-.862-3.092-2.06-4.051-3.59-.96-1.529-1.443-3.288-1.443-5.276V23h7.565v13.972c0 1.823.55 3.191 1.653 4.103 1.1.912 2.67 1.368 4.713 1.368 2.32 0 4.121-.627 5.403-1.88 1.28-1.253 1.922-3.003 1.922-5.25V23h7.564v28.529c0 1.662-.599 2.988-1.802 3.98-1.199.994-2.802 1.491-4.803 1.491H77.96z"></path></svg>