<svg xmlns="http://www.w3.org/2000/svg" width="48" height="50" fill="none" viewBox="0 0 48 50"><circle cx="24.431" cy="12.599" r="11.358" fill="#462B34"></circle><path fill="#462B34" d="M24.43 26.317c-10.353 0-19.078 7.017-21.737 16.584-.917 3.302 1.947 6.133 5.375 6.133h32.725c3.428 0 6.293-2.83 5.375-6.133-2.66-9.567-11.384-16.584-21.737-16.584z"></path><circle cx="22.569" cy="11.358" r="11.048" fill="#B9C8FF" stroke="#462B34" stroke-width="0.621"></circle><path fill="#B9C8FF" stroke="#462B34" stroke-width="0.621" d="M1.131 41.743c2.623-9.437 11.23-16.356 21.438-16.356 10.21 0 18.816 6.92 21.438 16.356.428 1.538-.022 2.963-.987 4.012-.969 1.054-2.458 1.728-4.088 1.728H6.207c-1.63 0-3.12-.673-4.089-1.728-.964-1.05-1.414-2.474-.987-4.012z"></path><path fill="#462B34" d="M35.865 32.837v-4.105l5.972-1.12 3.359 1.12v2.24l-2.24 3.732-4.105.746-2.986-2.613z"></path><path fill="#3DF089" d="M40.5 25c-3.581 0-6.5 2.919-6.5 6.5s2.919 6.5 6.5 6.5 6.5-2.919 6.5-6.5-2.919-6.5-6.5-6.5zm3.107 5.005l-3.685 3.686a.487.487 0 01-.69 0l-1.839-1.84a.49.49 0 010-.689.49.49 0 01.689 0l1.495 1.495 3.341-3.341a.49.49 0 01.689 0 .49.49 0 010 .689z"></path><path stroke="#462B34" d="M40.5 25c-3.581 0-6.5 2.919-6.5 6.5s2.919 6.5 6.5 6.5 6.5-2.919 6.5-6.5-2.919-6.5-6.5-6.5zm3.107 5.005l-3.685 3.686a.487.487 0 01-.69 0l-1.839-1.84a.49.49 0 010-.689.49.49 0 01.689 0l1.495 1.495 3.341-3.341a.49.49 0 01.689 0 .49.49 0 010 .689z"></path><circle cx="40.5" cy="31.5" r="7" stroke="#462B34"></circle></svg>