<svg xmlns="http://www.w3.org/2000/svg" width="90%" height="82" fill="none" viewBox="0 0 83 82"><circle cx="42.257" cy="42.255" r="39.745" fill="#462B34"></circle><circle cx="39.745" cy="39.745" r="39.245" fill="#FDFDFD" stroke="#462B34"></circle><path fill="#826770" d="M27 61h18.58v-1.163-4.517c0-.772.225-.95 1.224-.95h2.694c.853 0 1.123.222 1.123.906V61h3.368v-.462C54 47.688 54 34.828 54 21.968c0-.773-.247-.968-1.212-.968H28.2c-.932 0-1.19.213-1.19.95v38.615C27 60.698 27 60.831 27 61zm13.562-32.012c-.651 0-1.302-.01-1.954 0-.415.008-.628-.116-.628-.462.01-1.02.01-2.032 0-3.053 0-.32.19-.461.572-.461h3.918c.382 0 .573.15.562.47-.012 1.02-.012 2.032 0 3.053 0 .31-.169.461-.573.453h-1.897zm5.03 5.351c0-.488.022-.976-.012-1.464-.022-.373.157-.541.64-.541 1.246.008 2.504.008 3.75 0 .438 0 .662.141.65.496-.01 1.003 0 2.006 0 3.01 0 .319-.156.487-.594.487-1.291-.009-2.571-.009-3.862 0-.438 0-.595-.15-.584-.488.023-.497.011-.994.011-1.5zm-2.56 7.322c0 .488-.023.977 0 1.456.022.39-.158.568-.674.559-1.246-.018-2.492-.009-3.738 0-.45 0-.64-.142-.64-.497a132.72 132.72 0 000-3c0-.364.202-.497.65-.497 1.27.009 2.538.009 3.795 0 .416 0 .618.142.607.48-.012.496 0 1.002 0 1.5zm-2.582 5.37c.673 0 1.335.008 2.009 0 .404-.01.573.142.573.452 0 1.012-.012 2.033 0 3.044 0 .338-.18.489-.595.489h-3.851c-.416 0-.606-.151-.606-.489a132.73 132.73 0 000-3c0-.346.168-.514.628-.505.607.017 1.224.009 1.842.009zm5.141-19.987c0-.515.011-1.03 0-1.544-.011-.346.191-.48.595-.48h3.862c.382 0 .595.142.595.462v3.097c0 .284-.18.426-.55.426-1.325-.017-2.638-.017-3.94-.017-.405 0-.584-.125-.573-.444.023-.497.011-1.003.011-1.5zm-2.56 7.322c0 .488-.01.976 0 1.464.012.355-.168.506-.628.506a274.324 274.324 0 00-3.806 0c-.471 0-.629-.16-.617-.515.01-.985.01-1.979 0-2.964 0-.355.18-.515.628-.515h3.806c.45 0 .629.169.618.524-.023.497 0 1.003 0 1.5zm-10.08 1.961c-.675 0-1.348-.009-2.01 0-.348.01-.54-.124-.55-.39a151.074 151.074 0 010-3.186c0-.267.19-.417.527-.417h3.974c.36 0 .54.141.54.443a142.77 142.77 0 000 3.098c0 .32-.17.452-.573.452-.64-.009-1.28 0-1.909 0zm12.64 5.37c0-.515.011-1.03 0-1.553-.011-.32.169-.462.573-.462h3.918c.37 0 .55.15.55.435v3.097c0 .302-.18.462-.584.462-1.302-.009-2.616 0-3.918 0-.37 0-.55-.133-.539-.435v-1.544zm0 7.33c0-.514.011-1.029 0-1.553-.011-.32.169-.452.573-.452 1.302.009 2.616.009 3.918 0 .382 0 .55.15.55.426v3.142c0 .266-.18.417-.528.417H46.13c-.36 0-.55-.142-.539-.435v-1.544zM35.42 49.02c0 .506-.011 1.003 0 1.508.011.364-.202.506-.64.497a263.29 263.29 0 00-3.75 0c-.438 0-.662-.142-.65-.497V47.52c0-.32.145-.488.594-.488 1.291.008 2.571.008 3.862 0 .438 0 .595.16.584.488-.011.497 0 .994 0 1.5zm-2.504-20.031c-.65 0-1.302-.01-1.953 0-.37.008-.573-.116-.573-.409-.01-1.047 0-2.094 0-3.142 0-.257.169-.425.506-.425 1.347-.01 2.683-.01 4.03 0 .326 0 .505.133.505.417a146.883 146.883 0 000 3.141c0 .302-.168.426-.539.418h-1.976zm2.504 12.69c0 .49-.011.977 0 1.465.011.373-.146.542-.64.533-1.246-.018-2.504-.009-3.75 0-.449.009-.65-.142-.65-.497V40.17c0-.32.156-.497.594-.497 1.291.009 2.571.009 3.862 0 .393 0 .584.133.573.453 0 .523.011 1.038.011 1.553z"></path></svg>