<svg xmlns="http://www.w3.org/2000/svg" width="77" height="81" fill="none" viewBox="0 0 77 81"><circle cx="40.024" cy="20.64" r="18.608" fill="#462B34"></circle><path fill="#462B34" d="M40.026 43.113c-18.057 0-33.09 13.028-36.33 30.255-.714 3.8 2.488 6.962 6.354 6.962h59.951c3.866 0 7.068-3.163 6.354-6.962-3.239-17.227-18.273-30.255-36.33-30.255z"></path><circle cx="36.974" cy="18.608" r="18.258" fill="#B6ECCC" stroke="#462B34" stroke-width="0.7"></circle><path fill="#B6ECCC" stroke="#462B34" stroke-width="0.7" d="M.99 71.401c3.208-17.066 18.101-29.97 35.985-29.97s32.777 12.904 35.985 29.97c.665 3.539-2.315 6.547-6.01 6.547H7c-3.695 0-6.676-3.008-6.01-6.547z"></path><path fill="#462B34" d="M58.582 54.07v-5.684l8.268-1.55 4.651 1.55v3.1l-3.1 5.168-5.685 1.034-4.134-3.618z"></path><path fill="#3DF089" d="M65 43.217c-4.959 0-9 4.04-9 9 0 4.959 4.041 9 9 9s9-4.041 9-9c0-4.96-4.041-9-9-9zm4.302 6.93l-5.103 5.103a.674.674 0 01-.954 0l-2.547-2.547a.679.679 0 010-.954.679.679 0 01.954 0l2.07 2.07 4.626-4.626a.679.679 0 01.954 0 .679.679 0 010 .954z"></path><path stroke="#462B34" d="M65 43.217c-4.959 0-9 4.04-9 9 0 4.959 4.041 9 9 9s9-4.041 9-9c0-4.96-4.041-9-9-9zm4.302 6.93l-5.103 5.103a.674.674 0 01-.954 0l-2.547-2.547a.679.679 0 010-.954.679.679 0 01.954 0l2.07 2.07 4.626-4.626a.679.679 0 01.954 0 .679.679 0 010 .954z"></path><circle cx="65" cy="52.217" r="9.5" stroke="#462B34"></circle></svg>