<svg xmlns="http://www.w3.org/2000/svg" width="62" height="62" fill="none" viewBox="0 0 62 62"><circle cx="31.95" cy="31.949" r="30.051" fill="#462B34"></circle><circle cx="30.051" cy="30.051" r="29.551" fill="#FDFDFD" stroke="#462B34"></circle><path fill="#826770" d="M47 45H36.96v-.365-3.253c0-.416-.158-.584-.564-.59a63.829 63.829 0 00-1.541 0c-.45.006-.613.174-.613.646-.006 1.061 0 2.123 0 3.19v.354h-1.826v-.347-17.43c0-.652.212-.82.819-.64 4.41 1.273 8.827 2.54 13.237 3.824.188.056.358.199.534.304C47 35.461 47 40.227 47 45.001zm-7.31-11.21c.34 0 .685-.005 1.025 0 .26.007.358-.111.352-.372-.006-.689-.006-1.378 0-2.067 0-.248-.097-.36-.34-.353-.685.006-1.37.006-2.05 0-.243 0-.34.111-.34.36.006.701.006 1.402 0 2.098 0 .23.097.341.327.335.34-.006.686 0 1.026 0zm.018 2.347c-.34 0-.685.006-1.025 0-.243-.006-.346.1-.346.348.006.701.006 1.402 0 2.098 0 .23.091.347.321.347h2.081c.225 0 .328-.105.328-.341-.006-.708-.006-1.422 0-2.13 0-.241-.11-.328-.334-.322-.34.006-.685 0-1.025 0zm-2.748-3.712c0-.354-.012-.701.006-1.055.012-.26-.085-.379-.352-.379-.673.007-1.353.007-2.026 0-.243 0-.352.106-.352.354v2.104c0 .224.085.342.328.342.697-.006 1.389-.006 2.087 0 .218 0 .315-.093.309-.317a30.068 30.068 0 010-1.049zm6.843 1.366c.352 0 .704-.006 1.062 0 .2.006.309-.093.309-.292.006-.732.006-1.465 0-2.197 0-.199-.103-.304-.303-.304h-2.118c-.188 0-.303.08-.303.297v2.198c0 .21.097.298.297.298h1.056zm-8.19 2.346c-.346 0-.685.006-1.031 0-.249-.006-.352.105-.346.348v2.104c0 .223.097.341.328.341.697-.006 1.389 0 2.087 0 .212 0 .309-.1.309-.323a128.21 128.21 0 010-2.166c0-.23-.11-.31-.322-.304-.34.006-.685 0-1.025 0zm6.837 1.384c0 .36.006.72 0 1.086-.006.224.097.323.31.323h2.086c.207 0 .328-.093.328-.31v-2.197c0-.18-.091-.286-.285-.286H42.74c-.2 0-.29.1-.29.304.005.36 0 .72 0 1.08zM30.59 44.975H20.55v-.813-3.16c0-.54-.121-.663-.661-.663h-1.456c-.461 0-.607.155-.607.633v4.003h-1.82v-.323C16 35.665 16 26.671 16 17.677c0-.54.134-.677.655-.677h13.286c.503 0 .643.149.643.664v27.007c.006.093.006.186.006.304zm-7.328-22.389c.351 0 .703-.006 1.055 0 .225.007.34-.08.34-.322-.006-.714-.006-1.422 0-2.136 0-.223-.103-.322-.31-.322H22.23c-.206 0-.31.105-.303.329.006.713.006 1.421 0 2.135 0 .217.091.323.31.316h1.025zm-2.718 3.743c0-.341-.012-.683.006-1.024.012-.26-.085-.379-.346-.379-.673.007-1.353.007-2.026 0-.237 0-.358.1-.352.348.006.701 0 1.403 0 2.104 0 .224.085.342.322.342.697-.007 1.389-.007 2.086 0 .237 0 .322-.106.316-.342-.012-.347-.006-.695-.006-1.049zm1.383 5.121c0 .341.012.683 0 1.018-.012.273.085.397.364.391.673-.012 1.347-.006 2.02 0 .243 0 .346-.1.346-.348-.006-.701-.006-1.402 0-2.098 0-.254-.11-.347-.352-.347-.685.006-1.37.006-2.05 0-.225 0-.334.1-.328.335.006.348 0 .701 0 1.049zm1.395 3.755c-.364 0-.722.007-1.086 0-.218-.006-.309.1-.309.317 0 .707.006 1.421 0 2.129 0 .236.097.341.322.341h2.08c.225 0 .328-.105.328-.341-.006-.702-.006-1.403 0-2.098 0-.242-.091-.36-.34-.354-.327.013-.661.006-.995.006zm-2.778-13.978c0-.36-.006-.72 0-1.08.006-.242-.103-.335-.322-.335h-2.087c-.206 0-.321.1-.321.323V22.3c0 .198.097.298.297.298.716-.013 1.426-.013 2.13-.013.218 0 .315-.087.309-.31-.012-.348-.006-.701-.006-1.049zm1.383 5.12c0 .342.006.684 0 1.025-.006.248.091.354.34.354.685-.006 1.37-.006 2.056 0 .255 0 .34-.112.334-.36-.006-.69-.006-1.384 0-2.073 0-.249-.097-.36-.34-.36h-2.056c-.243 0-.34.117-.334.366.012.347 0 .701 0 1.049zm5.448 1.373c.364 0 .728-.007 1.086 0 .188.006.29-.087.297-.273.006-.745.006-1.484 0-2.229 0-.186-.103-.292-.285-.292h-2.148c-.194 0-.291.1-.291.31.006.72.006 1.447 0 2.167 0 .224.091.317.31.317.345-.007.691 0 1.03 0zm-6.831 3.755c0-.36-.006-.72 0-1.086.006-.224-.091-.323-.31-.323h-2.117c-.2 0-.297.105-.297.304v2.166c0 .211.097.323.315.323.704-.006 1.414 0 2.118 0 .2 0 .297-.093.29-.304v-1.08zm0 5.127c0-.36-.006-.72 0-1.086.006-.224-.091-.317-.31-.317a120.5 120.5 0 01-2.117 0c-.206 0-.297.106-.297.298v2.197c0 .186.097.292.285.292h2.148c.194 0 .297-.1.29-.304v-1.08zm5.496-.006c0 .354.006.701 0 1.055-.006.254.11.354.346.347.673-.006 1.353-.006 2.026 0 .237 0 .358-.099.352-.347v-2.104c0-.224-.079-.342-.322-.342-.697.007-1.389.007-2.086 0-.237 0-.322.112-.316.342.006.347 0 .695 0 1.049zm1.353-14.01c.352 0 .704-.006 1.055 0 .2.007.31-.08.31-.285.006-.733 0-1.465 0-2.197 0-.18-.091-.298-.273-.298-.728-.007-1.45-.007-2.178 0-.176 0-.273.093-.273.291.006.733.006 1.465 0 2.198 0 .21.091.298.291.291h1.068zm-1.353 8.876c0 .342.006.683 0 1.025-.006.26.079.378.346.372a73.579 73.579 0 012.026 0c.243.006.352-.1.352-.348v-2.104c0-.223-.085-.347-.322-.347-.697.006-1.389.006-2.086 0-.213 0-.316.093-.31.316 0 .366-.006.726-.006 1.086z"></path></svg>