<svg xmlns="http://www.w3.org/2000/svg" xmlns:xlink="http://www.w3.org/1999/xlink" viewBox="0 0 183 2138" width="183" height="2138" preserveAspectRatio="xMidYMid meet" style="width: 100%; height: 100%; transform: translate3d(0px, 0px, 0px); content-visibility: visible;"><defs><clipPath id="__lottie_element_782"><rect width="183" height="2138" x="0" y="0"></rect></clipPath><clipPath id="__lottie_element_784"><path d="M0,0 L183,0 L183,2138 L0,2138z"></path></clipPath><clipPath id="__lottie_element_794"><path d="M0,0 L183,0 L183,2138 L0,2138z"></path></clipPath><clipPath id="__lottie_element_810"><path d="M0,0 L183,0 L183,2138 L0,2138z"></path></clipPath><clipPath id="__lottie_element_823"><path d="M0,0 L183,0 L183,2138 L0,2138z"></path></clipPath><clipPath id="__lottie_element_836"><path d="M0,0 L183,0 L183,2138 L0,2138z"></path></clipPath></defs><g clip-path="url(#__lottie_element_782)"><g clip-path="url(#__lottie_element_836)" transform="matrix(1,0,0,1,0,0)" opacity="1" style="display: block;"><g transform="matrix(1,0,0,1,91.5,853.5)" opacity="1" style="display: block;"><g opacity="1" transform="matrix(1,0,0,1,0,-757.5)"><path fill="#EAA24B" fill-opacity="1" d=" M0,-88.5 C48.8431510925293,-88.5 88.5,-48.8431510925293 88.5,0 C88.5,48.8431510925293 48.8431510925293,88.5 0,88.5 C-48.8431510925293,88.5 -88.5,48.8431510925293 -88.5,0 C-88.5,-48.8431510925293 -48.8431510925293,-88.5 0,-88.5z"></path></g></g><g transform="matrix(1,0,0,1,91.5,1071.5)" opacity="1" style="display: block;"><g opacity="1" transform="matrix(1,0,0,1,0,0)"><path stroke-linecap="butt" stroke-linejoin="miter" fill-opacity="0" stroke-miterlimit="4" stroke="#361C24" stroke-opacity="1" stroke-width="21px" d=" M48.5,-1003 C48.5,-1003 -18.5,-942 -18.5,-942 C-18.5,-942 -48.5,-974 -48.5,-974"></path></g></g></g><g style="display: block;" transform="matrix(1,0,0,1,91.5,1069)" opacity="1"><g opacity="1" transform="matrix(1,0,0,1,0,0)"><path stroke-linecap="butt" stroke-linejoin="miter" fill-opacity="0" stroke-miterlimit="4" stroke="rgb(234,162,75)" stroke-opacity="1" stroke-width="15" d=" M-0.5,-639 C-0.5,-639 -0.5,-839 -0.5,-839"></path></g></g><g clip-path="url(#__lottie_element_823)" style="display: block;" transform="matrix(1,0,0,1,0,480)" opacity="1"><g style="display: block;" transform="matrix(1,0,0,1,91.5,853.5)" opacity="1"><g opacity="1" transform="matrix(1,0,0,1,0,-757.5)"><path fill="#EAA24B" fill-opacity="1" d=" M0,-88.5 C48.8431510925293,-88.5 88.5,-48.8431510925293 88.5,0 C88.5,48.8431510925293 48.8431510925293,88.5 0,88.5 C-48.8431510925293,88.5 -88.5,48.8431510925293 -88.5,0 C-88.5,-48.8431510925293 -48.8431510925293,-88.5 0,-88.5z"></path></g></g><g style="display: block;" transform="matrix(1,0,0,1,91.5,1071.5)" opacity="1"><g opacity="1" transform="matrix(1,0,0,1,0,0)"><path stroke-linecap="butt" stroke-linejoin="miter" fill-opacity="0" stroke-miterlimit="4" stroke="#361C24" stroke-opacity="1" stroke-width="21px" d=" M48.5,-1003 C48.5,-1003 -18.5,-942 -18.5,-942 C-18.5,-942 -48.5,-974 -48.5,-974"></path></g></g></g><g style="display: block;" transform="matrix(1,0,0,1,91.5,1549)" opacity="1"><g opacity="1" transform="matrix(1,0,0,1,0,0)"><path stroke-linecap="butt" stroke-linejoin="miter" fill-opacity="0" stroke-miterlimit="4" stroke="rgb(234,162,75)" stroke-opacity="1" stroke-width="15" d=" M-0.5,-639 C-0.5,-639 -0.5,-839 -0.5,-839"></path></g></g><g clip-path="url(#__lottie_element_810)" style="display: block;" transform="matrix(1,0,0,1,0,950)" opacity="1"><g style="display: block;" transform="matrix(1,0,0,1,91.5,853.5)" opacity="1"><g opacity="1" transform="matrix(1,0,0,1,0,-757.5)"><path fill="#EAA24B" fill-opacity="1" d=" M0,-88.5 C48.8431510925293,-88.5 88.5,-48.8431510925293 88.5,0 C88.5,48.8431510925293 48.8431510925293,88.5 0,88.5 C-48.8431510925293,88.5 -88.5,48.8431510925293 -88.5,0 C-88.5,-48.8431510925293 -48.8431510925293,-88.5 0,-88.5z"></path></g></g><g style="display: block;" transform="matrix(1,0,0,1,91.5,1071.5)" opacity="1"><g opacity="1" transform="matrix(1,0,0,1,0,0)"><path stroke-linecap="butt" stroke-linejoin="miter" fill-opacity="0" stroke-miterlimit="4" stroke="#361C24" stroke-opacity="1" stroke-width="21px" d=" M48.5,-1003 C48.5,-1003 -18.5,-942 -18.5,-942 C-18.5,-942 -48.5,-974 -48.5,-974"></path></g></g></g><g style="display: block;" transform="matrix(1,0,0,1,91.5,2019)" opacity="1"><g opacity="1" transform="matrix(1,0,0,1,0,0)"><path stroke-linecap="butt" stroke-linejoin="miter" fill-opacity="0" stroke-miterlimit="4" stroke="rgb(234,162,75)" stroke-opacity="1" stroke-width="15" d=" M-0.5,-639 C-0.5,-639 -0.5,-839 -0.5,-839"></path></g></g><g style="display: block;" transform="matrix(1,0,0,1,91.5,2519)" opacity="1"><g opacity="1" transform="matrix(1,0,0,1,0,0)"><path stroke-linecap="butt" stroke-linejoin="miter" fill-opacity="0" stroke-miterlimit="4" stroke="rgb(234,162,75)" stroke-opacity="1" stroke-width="15" d=" M-0.5,-639 C-0.5,-639 -0.5,-839 -0.5,-839"></path></g></g><g clip-path="url(#__lottie_element_794)" style="display: block;" transform="matrix(1,0,0,1,0,1450)" opacity="1"><g style="display: block;" transform="matrix(1,0,0,1,91.5,853.5)" opacity="1"><g opacity="1" transform="matrix(1,0,0,1,0,-757.5)"><path fill="#EAA24B" fill-opacity="1" d=" M0,-88.5 C48.8431510925293,-88.5 88.5,-48.8431510925293 88.5,0 C88.5,48.8431510925293 48.8431510925293,88.5 0,88.5 C-48.8431510925293,88.5 -88.5,48.8431510925293 -88.5,0 C-88.5,-48.8431510925293 -48.8431510925293,-88.5 0,-88.5z"></path></g></g><g style="display: block;" transform="matrix(1,0,0,1,91.5,1071.5)" opacity="1"><g opacity="1" transform="matrix(1,0,0,1,0,0)"><path stroke-linecap="butt" stroke-linejoin="miter" fill-opacity="0" stroke-miterlimit="4" stroke="#361C24" stroke-opacity="1" stroke-width="21px" d=" M48.5,-1003 C48.5,-1003 -18.5,-942 -18.5,-942 C-18.5,-942 -48.5,-974 -48.5,-974"></path></g></g></g><g clip-path="url(#__lottie_element_784)" style="display: block;" transform="matrix(1,0,0,1,0,1932)" opacity="1"><g style="display: block;" transform="matrix(1,0,0,1,91.5,853.5)" opacity="1"><g opacity="1" transform="matrix(1,0,0,1,0,-757.5)"><path fill="#EAA24B" fill-opacity="1" d=" M0,-88.5 C48.8431510925293,-88.5 88.5,-48.8431510925293 88.5,0 C88.5,48.8431510925293 48.8431510925293,88.5 0,88.5 C-48.8431510925293,88.5 -88.5,48.8431510925293 -88.5,0 C-88.5,-48.8431510925293 -48.8431510925293,-88.5 0,-88.5z"></path></g></g><g style="display: block;" transform="matrix(1,0,0,1,91.5,1071.5)" opacity="1"><g opacity="1" transform="matrix(1,0,0,1,0,0)"><path stroke-linecap="butt" stroke-linejoin="miter" fill-opacity="0" stroke-miterlimit="4" stroke="#361C24" stroke-opacity="1" stroke-width="21px" d=" M48.5,-1003 C48.5,-1003 -18.5,-942 -18.5,-942 C-18.5,-942 -48.5,-974 -48.5,-974"></path></g></g></g></g></svg>