<svg xmlns:xlink="http://www.w3.org/1999/xlink" width="32" height="31" fill="none" xmlns="http://www.w3.org/2000/svg"><g clip-path="url(#sffsa)" fill="none"><path d="M14.743 18.35c.218-.227.402-.422.603-.617l10.432-10.1.352-.341c.604-.634.655-1.283.118-1.77-.537-.504-1.107-.455-1.761.146-1.51 1.445-3.002 2.906-4.512 4.352-2.197 2.127-4.394 4.238-6.574 6.382-.403.405-.738.52-1.291.308A1018.383 1018.383 0 0 0 .99 12.683c-.553-.195-.973-.471-.99-1.056-.016-.633.437-.925 1.024-1.12C10.432 7.145 19.858 3.8 29.267.439c.436-.163.889-.422 1.341-.439.436-.016.973.082 1.275.341.201.179.134.731.034 1.088-.738 2.988-1.527 5.976-2.281 8.964a8146.846 8146.846 0 0 0-4.898 19.34c-.15.585-.385 1.105-1.056 1.235-.705.13-1.057-.341-1.375-.845-2.5-3.897-5.015-7.794-7.564-11.773Z" fill="#462B34"></path></g><defs><clipPath id="sffsa"><path fill="#fff" d="M0 0h32v31H0z"></path></clipPath></defs></svg>