<svg xmlns="http://www.w3.org/2000/svg" width="91" height="92" fill="none" color="#FFF5B7" style="transform: none;"><circle cx="45.501" cy="45.788" r="45" fill="#FFF5B7" stroke="#462B34"></circle><circle cx="45.501" cy="45.788" r="27" stroke="#462B34"></circle><g fill="#462B34" clip-path="url(#clip0_3644_16241)"><path d="M57.766 16.109l3.001-6.89.976.45-3.001 6.89-.976-.45zM62.718 18.58l4.651-5.916.9.6-.524 6.739 3.45-4.418.901.674-4.651 5.915-.9-.674.524-6.739-3.45 4.418-.901-.599zM71.346 26.892l4.876-6.29.675.973-4.126 5.392 6.527-1.872.675.973-7.652 2.247-.975-1.423zM75.097 33.706l7.052-2.696.375 1.049-7.052 2.696-.375-1.049zM77.048 40.895l6.452-.824-.3-2.471 1.05-.15.75 6.066-1.05.15-.3-2.472-6.452.824-.15-1.123zM77.272 48.233l7.503 1.198-.75 4.793-1.05-.15.6-3.67-2.101-.299-.45 3.07-1.05-.15.45-3.07-2.326-.374-.525 3.594-1.05-.15.75-4.792zM71.196 64.033c.45-.599.975-1.048 1.5-1.273.6-.224 1.2-.3 1.8-.15.676.15 1.276.375 1.951.899.6.45 1.126.974 1.426 1.573.3.599.45 1.198.375 1.797a3.95 3.95 0 01-.75 1.872c-.45.599-.976 1.048-1.5 1.273-.601.224-1.201.3-1.801.15-.676-.15-1.276-.375-1.951-.9-.675-.523-1.125-.973-1.425-1.572-.3-.599-.45-1.198-.376-1.797.075-.674.3-1.273.75-1.872zm.825.6c-.3.449-.45.823-.525 1.272 0 .45.075.824.375 1.273.225.375.6.749 1.05 1.123.45.375.9.6 1.35.674.45.075.9.075 1.276-.075.375-.15.75-.449 1.05-.898.3-.45.45-.824.526-1.273 0-.45-.076-.824-.376-1.273-.3-.45-.6-.749-1.05-1.123-.45-.375-.9-.6-1.35-.674-.45-.075-.9-.075-1.276.075-.375.224-.75.449-1.05.898zM66.394 69.65l4.426 6.14-.9.673-6.302-2.396 3.301 4.568-.9.674-4.501-6.215.9-.674 6.302 2.396-3.301-4.568.975-.599zM57.541 74.966l2.401 7.114-1.05.374-2.101-6.14-3.226 1.123-.3-.974 4.276-1.497zM48.688 77.138l.226 3.144 2.925 4.194-1.275.075-2.1-2.996-1.576 3.295-1.276.075 2.176-4.642-.225-3.145h1.125zM33.984 75.19l-2.851 6.965-1.05-.45 2.85-6.964 1.05.45zM28.882 72.87l-4.501 6.065-.9-.674.375-6.74-3.376 4.493-.9-.674 4.5-6.065.901.674-.375 6.74 3.376-4.494.9.674zM20.105 64.782l-4.727 6.365-.675-.899 3.976-5.466-6.452 2.097-.675-.974 7.577-2.47.976 1.347zM16.128 57.968l-6.977 2.845-.45-1.048 6.977-2.846.45 1.049zM14.027 50.854l-6.451.974.375 2.47-1.05.15L6 48.383l1.05-.15.375 2.471 6.452-.973.15 1.123zM13.577 43.59l-7.502-.973.6-4.792 1.05.15-.525 3.669 2.101.3.45-3.146.975.15-.375 3.07 2.326.3.525-3.67 1.05.15-.675 4.792zM19.28 27.566c-.451.599-.901 1.048-1.501 1.348-.6.224-1.2.3-1.8.224-.676-.075-1.276-.374-1.952-.823a4.444 4.444 0 01-1.425-1.498c-.3-.524-.45-1.198-.45-1.797 0-.6.225-1.273.675-1.872.45-.6.9-1.049 1.5-1.273.6-.225 1.2-.3 1.801-.225.6.075 1.276.375 1.95.824.676.45 1.126.973 1.426 1.497.3.6.45 1.124.45 1.798 0 .599-.3 1.198-.675 1.797zm-.901-.524c.3-.45.45-.899.45-1.273 0-.45-.15-.824-.375-1.198-.225-.375-.6-.75-1.126-1.049-.45-.3-.975-.524-1.425-.599-.45-.075-.9-.075-1.275.075-.376.15-.75.45-1.05.899-.3.449-.45.898-.45 1.273 0 .449.15.823.374 1.198.225.374.6.749 1.126 1.048.45.3.975.524 1.425.674.45.075.9.075 1.275-.075.45-.3.75-.599 1.05-.973zM23.93 21.875l-4.576-5.99.9-.675 6.378 2.247-3.377-4.493.9-.674 4.577 5.99-.975.674-6.377-2.246 3.376 4.493-.825.674zM32.633 16.259l-2.625-7.04 1.05-.373 2.25 6.14 3.227-1.198.375.973-4.277 1.498zM41.411 13.937l-.375-3.07-3-4.118 1.275-.15 2.175 2.92 1.5-3.37L44.188 6l-2.026 4.717.376 3.07-1.126.15zM50.564 12.065a1.874 1.874 0 001.876-1.872c0-1.034-.84-1.872-1.876-1.872a1.874 1.874 0 00-1.876 1.872c0 1.034.84 1.872 1.876 1.872zM40.586 82.38a1.874 1.874 0 001.876-1.873c0-1.034-.84-1.872-1.876-1.872a1.874 1.874 0 00-1.876 1.872c0 1.034.84 1.872 1.876 1.872z"></path></g><defs><clipPath id="clip0_3644_16241"><path fill="#fff" d="M0 0H79V79H0z" transform="translate(6 6)"></path></clipPath></defs></svg>