<svg xmlns="http://www.w3.org/2000/svg" width="204" height="204" fill="none" viewBox="0 0 204 204"><path fill="#FCB2B2" stroke="#462B34" d="M120.08 30.13l28.87-17.586 1.927 33.75.029.503.502-.032 33.736-2.156-13.978 30.78-.208.459.46.205 30.873 13.77-26.681 20.758-.397.309.312.395 20.938 26.54-33.272 5.981-.496.089.093.495 6.206 33.231-32.24-10.167-.48-.151-.149.481-9.947 32.308-23.823-23.984-.355-.358-.355.358-23.823 23.984-9.947-32.308-.149-.481-.48.151-32.24 10.167 6.206-33.231.092-.495-.495-.089-33.272-5.981 20.938-26.54.312-.395-.397-.309L1.709 89.822l30.873-13.77.46-.204-.208-.459-13.979-30.78 33.737 2.156.502.032.03-.503 1.926-33.75 28.87 17.587.43.262.26-.432L102 .97l17.391 28.99.259.432.43-.262z"></path><path fill="#462B34" d="M95 57H116V118H95z"></path><path fill="#462B34" d="M95 125H116V143H95z"></path><path fill="#EA6B6B" stroke="#462B34" d="M92.5 55.5H112.5V115.5H92.5z"></path><path fill="#EA6B6B" stroke="#462B34" d="M92.5 123.5H112.5V140.5H92.5z"></path></svg>