<svg xmlns:xlink="http://www.w3.org/1999/xlink" xmlns="http://www.w3.org/2000/svg" width="162" height="30" fill="none" viewBox="0 0 162 30"><g fill="#462B34" clip-path="url(#clip0_6030_389)"><path d="M0 29.604V0h6.927v12.224H20.57V0h6.926v29.604H20.57V17.296H6.927v12.308H0zM59.841 29.604V0h15.954c2.31 0 4.321.325 6.035.973 1.714.648 3.043 1.566 3.988 2.749.946 1.183 1.417 2.58 1.417 4.186v.507c0 1.775-.525 3.215-1.575 4.314-1.05 1.099-2.344 1.903-3.884 2.41v.76c1.399.057 2.485.444 3.253 1.164.769.72 1.156 1.67 1.156 2.856v9.685h-6.927v-8.88c0-.677-.218-1.228-.656-1.65-.438-.423-1.163-.636-2.177-.636h-9.657v11.166H59.84zm6.927-16.24h8.292c1.644 0 2.93-.359 3.858-1.079.927-.72 1.39-1.67 1.39-2.853v-.423c0-1.183-.456-2.136-1.365-2.856-.91-.72-2.206-1.078-3.883-1.078h-8.292v8.289zM90.788 29.604V0h6.926v29.604h-6.926zM101.257 29.604V0h13.172l7.295 25.798h.945V0h6.822v29.604h-13.172l-7.295-25.797h-.945v25.797h-6.822zM146.572 29.604c-2.518 0-4.803-.44-6.85-1.322-2.047-.88-3.673-2.17-4.88-3.862-1.206-1.694-1.811-3.76-1.811-6.202v-6.832c0-3.66 1.329-6.473 3.988-8.438C139.678.984 143.282 0 147.829 0c4.547 0 8.003.93 10.47 2.787 2.466 1.857 3.698 4.373 3.698 7.544v.161h-6.821v-.325c0-1.002-.272-1.911-.812-2.726-.543-.812-1.358-1.457-2.441-1.931-1.084-.474-2.449-.712-4.094-.712-2.449 0-4.372.584-5.774 1.75-1.398 1.165-2.097 2.75-2.097 4.759v6.996c0 1.98.699 3.573 2.097 4.777 1.399 1.206 3.359 1.808 5.879 1.808 2.521 0 4.358-.515 5.51-1.544 1.156-1.03 1.732-2.331 1.732-3.904v-.407h-8.712v-4.555h15.533v15.129h-6.401v-3.294h-.945c-.246.46-.638.95-1.181 1.462-.543.515-1.355.95-2.441 1.302-1.084.35-2.572.527-4.46.527h.003zM34.115 29.61v-4.68H48.31c.981 0 1.473-.426 1.473-1.276v-5.318h-.945c-.282.481-.72.963-1.315 1.447-.596.482-1.4.879-2.418 1.191-1.017.313-2.313.47-3.89.47-2.035 0-3.812-.377-5.336-1.128-1.525-.75-2.708-1.793-3.548-3.125-.84-1.332-1.263-2.864-1.263-4.596V0h6.624v12.168c0 1.588.482 2.779 1.447 3.573.964.794 2.34 1.191 4.127 1.191 2.032 0 3.61-.545 4.731-1.637 1.122-1.091 1.683-2.615 1.683-4.572V0h6.625v24.845c0 1.447-.526 2.602-1.578 3.466-1.05.866-2.454 1.298-4.206 1.298H34.115z" fill="#462B34"></path></g><defs><clipPath id="clip0_6030_389"><path fill="#fff" d="M0 0H162V29.609H0z"></path></clipPath></defs></svg>