<svg xmlns="http://www.w3.org/2000/svg" width="231" height="44" fill="none" viewBox="0 0 231 44"><path fill="#361C24" d="M2 41.993V0h9.771v17.34h19.246V0h9.771v41.993h-9.771v-17.46H11.771v17.46H2zM86.417 41.993V0h22.506c3.259 0 6.096.461 8.513 1.38 2.418.92 4.293 2.22 5.627 3.9 1.333 1.678 1.998 3.658 1.998 5.937v.72c0 2.517-.741 4.56-2.222 6.118-1.482 1.559-3.307 2.7-5.479 3.42v1.078c1.973.08 3.506.629 4.59 1.65s1.629 2.369 1.629 4.051v13.739h-9.771V29.395c0-.959-.307-1.74-.925-2.34-.618-.6-1.64-.9-3.071-.9H96.189v15.838h-9.772zm9.772-23.037h11.697c2.32 0 4.134-.509 5.442-1.53 1.308-1.02 1.962-2.369 1.962-4.047v-.6c0-1.679-.643-3.03-1.926-4.051-1.283-1.021-3.112-1.53-5.478-1.53H96.189v11.758zM130.073 41.993V0h9.771v41.993h-9.771zM144.841 41.993V0h18.58l10.292 36.593h1.333V0h9.623v41.993h-18.581L155.797 5.399h-1.334v36.594h-9.622zM208.765 41.993c-3.552 0-6.776-.625-9.663-1.875-2.887-1.25-5.182-3.078-6.884-5.48-1.702-2.401-2.555-5.334-2.555-8.796v-9.69c0-5.193 1.876-9.183 5.627-11.97C199.041 1.395 204.125 0 210.539 0s11.289 1.319 14.769 3.953c3.48 2.635 5.218 6.203 5.218 10.701v.229h-9.623v-.461c0-1.421-.383-2.711-1.146-3.867-.766-1.151-1.915-2.067-3.444-2.74-1.528-.671-3.454-1.01-5.774-1.01-3.455 0-6.168.83-8.145 2.482-1.973 1.654-2.96 3.903-2.96 6.751v9.924c0 2.808.987 5.068 2.96 6.776 1.973 1.712 4.737 2.565 8.293 2.565 3.556 0 6.147-.73 7.773-2.19 1.63-1.461 2.443-3.307 2.443-5.538v-.578h-12.29v-6.46h21.913v21.46h-9.031v-4.673h-1.333c-.347.654-.9 1.348-1.666 2.074-.766.73-1.912 1.348-3.444 1.846-1.528.498-3.628.749-6.291.749h.004zM50.127 42v-6.639h20.022c1.384 0 2.078-.603 2.078-1.809v-7.543h-1.333c-.398.683-1.016 1.366-1.854 2.053-.842.683-1.977 1.246-3.411 1.69-1.435.443-3.263.664-5.49.664-2.868 0-5.376-.534-7.526-1.599-2.15-1.064-3.82-2.543-5.005-4.432-1.185-1.89-1.782-4.063-1.782-6.519V0h9.345v17.26c0 2.252.68 3.942 2.042 5.068 1.358 1.127 3.299 1.69 5.821 1.69 2.866 0 5.092-.774 6.675-2.322 1.582-1.548 2.374-3.71 2.374-6.486V0h9.344v35.242c0 2.053-.74 3.691-2.226 4.916C77.72 41.386 75.74 42 73.268 42H50.126z"></path><path stroke="#361C24" stroke-width="0.5" d="M9.521 26.534v17.209H.25V2.25h9.271v17.34h19.746V2.25h9.271v41.493h-9.271v-17.46H9.521v.25zM121.329 30.254v13.489h-9.271V31.395c0-1.018-.328-1.867-1.001-2.52-.687-.666-1.789-.97-3.245-.97H93.939v15.838h-9.272V2.25h22.256c3.236 0 6.042.458 8.424 1.364 2.384.907 4.22 2.184 5.52 3.821 1.296 1.631 1.944 3.556 1.944 5.782v.72c0 2.465-.724 4.441-2.154 5.946-1.451 1.527-3.24 2.647-5.375 3.354l-.172.057v1.5l.24.01c1.933.078 3.401.613 4.428 1.58 1.028.969 1.551 2.248 1.551 3.87zm-27.39-9.298v.25h11.947c2.353 0 4.229-.516 5.595-1.582 1.37-1.07 2.059-2.49 2.059-4.245v-.6c0-1.753-.677-3.177-2.021-4.247-1.343-1.069-3.235-1.584-5.633-1.584H93.939v12.008zM128.323 43.743V2.25h9.271v41.493h-9.271zM152.213 7.4v36.343h-9.122V2.25h18.141l10.24 36.411.052.182h1.772V2.25h9.123v41.493h-18.141l-10.24-36.411-.052-.183H152.213v.25zM228.276 16.633h-9.123v-.211c0-1.469-.397-2.807-1.187-4.004l-.001-.001c-.797-1.2-1.988-2.143-3.551-2.83-1.57-.69-3.533-1.031-5.875-1.031-3.493 0-6.271.838-8.305 2.54h-.001c-2.036 1.706-3.049 4.029-3.049 6.942v9.924c0 2.874 1.014 5.206 3.046 6.965 2.033 1.763 4.863 2.626 8.457 2.626 3.581 0 6.247-.734 7.94-2.255 1.684-1.509 2.526-3.423 2.526-5.723v-.828h-12.29v-5.96h21.413v20.96h-8.531v-4.673H218.012l-.071.133c-.33.623-.864 1.295-1.617 2.01h0c-.729.695-1.836 1.298-3.349 1.79h0c-1.492.486-3.561.736-6.212.736-3.522 0-6.71-.62-9.562-1.855-2.848-1.233-5.105-3.032-6.779-5.394-1.667-2.353-2.509-5.232-2.509-8.652v-9.69c0-5.124 1.846-9.035 5.526-11.77 3.694-2.744 8.72-4.132 15.1-4.132 6.383 0 11.197 1.313 14.618 3.903 3.409 2.58 5.113 6.067 5.119 10.48zM71.268 43.75H48.376v-6.139H68.15c.723 0 1.312-.156 1.722-.513.417-.363.606-.894.606-1.546v-7.793H68.75l-.072.124c-.378.65-.973 1.31-1.796 1.985-.81.657-1.913 1.207-3.327 1.645-1.402.433-3.203.653-5.415.653-2.838 0-5.307-.528-7.416-1.572-2.112-1.046-3.745-2.495-4.904-4.342-1.158-1.846-1.744-3.972-1.744-6.386V2.25h8.845v17.01c0 2.304.697 4.074 2.132 5.26 1.42 1.177 3.425 1.748 5.981 1.748 2.911 0 5.207-.788 6.85-2.393 1.642-1.607 2.449-3.84 2.449-6.665V2.25h8.844v34.992c0 1.984-.712 3.55-2.135 4.723h0c-1.425 1.182-3.344 1.785-5.774 1.785z"></path></svg>