<svg xmlns="http://www.w3.org/2000/svg" width="53" height="46" fill="none" viewBox="0 0 53 46"><path fill="#FFF5B7" d="M15.999 41.5l.5-14.5 10.5-1-1 16-10-.5z"></path><path fill="#FCB2B2" d="M45.388 41.706a5.923 5.923 0 011.717 3.242 5.874 5.874 0 011.6-3.3 5.874 5.874 0 013.243-1.718 5.974 5.974 0 01-3.3-1.6 5.825 5.825 0 01-1.717-3.243 5.874 5.874 0 01-1.602 3.3 5.874 5.874 0 01-3.242 1.717 5.777 5.777 0 013.3 1.602z"></path><path fill="#FFD7A6" d="M4.393 9.683a7.682 7.682 0 012.226 4.204 7.617 7.617 0 012.077-4.28 7.617 7.617 0 014.205-2.226 7.748 7.748 0 01-4.28-2.077c-1.228-1.165-1.958-2.66-2.227-4.205a7.617 7.617 0 01-2.077 4.28A7.617 7.617 0 01.112 7.607c1.573.214 3.073.891 4.281 2.077z"></path><path fill="#B9C8FF" stroke="#462B34" stroke-linejoin="round" stroke-width="1.25" d="M32.44 45.16H8.128c-.273-.086-.557-.146-.815-.264-.743-.336-1.11-.975-1.33-1.721V23.08c.454-1.466 1.486-1.942 2.967-1.93 5.255.043 10.511.017 15.768.017h.503v-.471c0-1.337-.006-2.674.002-4.01.011-1.73.364-3.378 1.128-4.942 2.11-4.321 7.114-6.755 11.816-5.724 4.896 1.073 8.362 5.275 8.493 10.297.045 1.704-1.162 3.013-2.845 3.086-1.532.067-2.846-1.194-2.948-2.825-.019-.303-.039-.607-.082-.907-.347-2.4-2.729-4.279-5.143-4.063-2.7.24-4.59 2.275-4.615 4.985-.014 1.416-.003 2.832-.001 4.248 0 .101.02.201.033.326h1.054c1.54.01 2.52.95 2.523 2.494.011 6.325.006 12.65.004 18.976 0 .843-.276 1.58-.997 2.049-.354.23-.797.32-1.2.474h-.001zm-14.399-9.663h.015c0 .634-.026 1.27.008 1.904.04.765.425 1.355 1.08 1.745 1.542.918 3.397-.151 3.436-1.988.024-1.15-.006-2.302.015-3.451a.844.844 0 01.23-.534c.959-.95 1.323-2.093 1.078-3.404-.269-1.445-1.513-2.65-2.887-2.877-1.53-.253-3.02.38-3.787 1.605-.838 1.34-.852 3.018.175 4.177.567.64.698 1.266.64 2.03-.02.263-.003.529-.003.794v0z"></path></svg>