<svg xmlns:xlink="http://www.w3.org/1999/xlink" width="72" height="92" viewBox="0 0 72 92" fill="none" xmlns="http://www.w3.org/2000/svg"><path d="M36.927 91.3432C32.0234 91.3432 27.1199 91.2635 22.1965 91.3632C15.8777 91.4828 10.9343 88.732 7.00749 84.0278C2.66209 78.7854 1.48604 72.5663 2.0641 65.9286C2.90129 56.3209 6.62877 47.7497 11.6718 39.7167C14.1037 35.8497 16.9341 32.2418 19.5454 28.5143C20.0238 27.8366 20.562 27.6572 21.3792 27.6572C31.8241 27.6772 42.269 27.6772 52.7139 27.6971C53.1525 27.6971 53.7504 27.8366 54.0096 28.1356C60.6074 36.2484 66.1886 44.979 69.5573 54.9655C71.2317 59.9288 72.1088 65.0117 71.9892 70.294C71.7898 79.3436 66.1288 87.5958 57.8965 90.4263C56.262 90.9845 54.468 91.2635 52.7538 91.3034C47.4715 91.403 42.2092 91.3432 36.927 91.3432ZM33.7775 72.2673C33.7775 73.2241 33.7775 74.1012 33.7775 74.9583C33.7775 75.2573 33.7775 75.5563 33.8174 75.8553C34.0965 77.4898 35.5317 78.6858 37.0864 78.606C38.7807 78.5263 40.0764 77.1709 40.1362 75.3968C40.176 74.3603 40.1362 73.3039 40.1362 72.2873C40.774 72.1876 41.2724 72.1278 41.7707 72.0481C46.1958 71.3903 49.6841 67.2841 49.6841 62.6995C49.704 58.075 46.1958 53.8293 41.7109 53.331C39.1196 53.0519 36.4884 53.1715 33.8772 53.1117C31.9636 53.0718 30.5883 51.7363 30.5883 49.8826C30.6082 48.0886 31.9836 46.773 33.8573 46.7531C35.6114 46.7331 37.3854 46.8328 39.1196 46.7331C40.9534 46.6335 42.3089 47.1717 43.2457 48.846C43.9035 50.042 45.4583 50.4606 46.734 50.042C48.0695 49.6234 48.9067 48.4673 48.9267 47.0521C48.9466 45.5571 48.0097 44.5206 47.1327 43.504C45.2988 41.4309 42.9069 40.514 40.1362 40.3346C40.1362 39.3778 40.1362 38.4809 40.1362 37.6038C40.1162 35.4909 38.8206 34.0159 36.9668 33.9959C35.1131 33.976 33.7775 35.451 33.7576 37.544C33.7576 38.4609 33.7576 39.3778 33.7576 40.2948C33.1596 40.3745 32.6812 40.4542 32.1829 40.534C27.698 41.1918 24.1898 45.3179 24.2097 49.9424C24.2296 54.5269 27.678 58.7527 32.1231 59.2511C34.7343 59.5501 37.4054 59.4305 40.0565 59.4703C41.9102 59.5102 43.2856 60.8457 43.2856 62.6397C43.2856 64.4337 41.9302 65.809 40.0565 65.829C38.0631 65.8489 36.0698 65.7891 34.0965 65.8489C32.6214 65.8888 31.5849 65.2908 30.8275 64.035C29.8507 62.4005 27.997 61.942 26.4621 62.859C24.9074 63.7759 24.4888 65.7094 25.4854 67.3638C27.3591 70.4734 30.1298 72.0082 33.7775 72.2673Z" fill="#462B34"></path><path d="M36.9467 21.2777C32.3023 21.2777 27.6579 21.2777 23.0334 21.2977C22.4753 21.2977 22.1365 21.1581 21.8773 20.6199C19.6448 16.0752 17.3924 11.5504 15.12 7.02561C14.522 5.82962 14.4622 4.67351 15.2396 3.55726C15.9572 2.52074 16.9937 2.02242 18.2495 2.22175C18.8076 2.30148 19.4056 2.54067 19.8641 2.87954C24.4686 6.28808 30.4286 6.28808 34.9933 2.8596C36.2291 1.94268 37.7839 1.84302 38.94 2.83967C42.807 6.20835 50.1424 6.22828 54.0692 2.87954C55.2651 1.86295 56.8399 1.92275 58.0159 2.83967C59.192 3.75659 59.6305 5.29143 58.9528 6.66681C56.6405 11.3909 54.2884 16.0951 51.8965 20.7794C51.7569 21.0385 51.2187 21.2379 50.8599 21.2379C46.2355 21.2977 41.5911 21.2777 36.9467 21.2777Z" fill="#462B34"></path><mask id="path-3-inside-1_2936_1331" fill="#FFFFFF"><path d="M35 89.4765C30.0964 89.4765 25.1929 89.3968 20.2695 89.4965C13.9507 89.6161 9.0073 86.8653 5.08049 82.1611C0.73509 76.9187 -0.440958 70.6996 0.137099 64.0619C0.974287 54.4542 4.70176 45.883 9.74482 37.85C12.1766 33.983 15.0071 30.3751 17.6184 26.6476C18.0968 25.9699 18.6349 25.7905 19.4522 25.7905C29.8971 25.8105 40.342 25.8105 50.7869 25.8304C51.2254 25.8304 51.8234 25.9699 52.0826 26.2689C58.6804 34.3817 64.2616 43.1123 67.6303 53.0988C69.3047 58.0621 70.1818 63.145 70.0622 68.4273C69.8628 77.4769 64.2018 85.7291 55.9695 88.5596C54.335 89.1178 52.541 89.3968 50.8268 89.4367C45.5445 89.5363 40.2822 89.4765 35 89.4765ZM31.8505 70.4006C31.8505 71.3574 31.8505 72.2345 31.8505 73.0916C31.8505 73.3906 31.8505 73.6896 31.8904 73.9886C32.1695 75.6231 33.6047 76.8191 35.1594 76.7393C36.8537 76.6596 38.1494 75.3042 38.2092 73.5301C38.249 72.4936 38.2092 71.4372 38.2092 70.4206C38.847 70.3209 39.3454 70.2611 39.8437 70.1814C44.2688 69.5236 47.7571 65.4174 47.7571 60.8328C47.777 56.2083 44.2688 51.9626 39.7839 51.4643C37.1926 51.1852 34.5614 51.3048 31.9502 51.245C30.0366 51.2051 28.6613 49.8696 28.6613 48.0159C28.6812 46.2219 30.0566 44.9063 31.9303 44.8864C33.6844 44.8664 35.4584 44.9661 37.1926 44.8664C39.0264 44.7668 40.3819 45.305 41.3187 46.9793C41.9765 48.1753 43.5313 48.5939 44.807 48.1753C46.1425 47.7567 46.9797 46.6006 46.9996 45.1854C47.0196 43.6904 46.0827 42.6539 45.2057 41.6373C43.3718 39.5642 40.9799 38.6473 38.2092 38.4679C38.2092 37.5111 38.2092 36.6142 38.2092 35.7371C38.1892 33.6242 36.8936 32.1492 35.0398 32.1292C33.1861 32.1093 31.8505 33.5843 31.8306 35.6773C31.8306 36.5942 31.8306 37.5111 31.8306 38.4281C31.2326 38.5078 30.7542 38.5875 30.2559 38.6673C25.771 39.3251 22.2628 43.4512 22.2827 48.0757C22.3026 52.6602 25.751 56.886 30.1961 57.3844C32.8073 57.6834 35.4784 57.5638 38.1295 57.6036C39.9832 57.6435 41.3586 58.979 41.3586 60.773C41.3586 62.567 40.0032 63.9423 38.1295 63.9623C36.1361 63.9822 34.1428 63.9224 32.1695 63.9822C30.6944 64.0221 29.6579 63.4241 28.9005 62.1683C27.9237 60.5338 26.07 60.0753 24.5351 60.9923C22.9803 61.9092 22.5618 63.8427 23.5584 65.4971C25.4321 68.6067 28.2028 70.1415 31.8505 70.4006Z" fill="#FFFFFF"></path></mask><path d="M35 89.4765C30.0964 89.4765 25.1929 89.3968 20.2695 89.4965C13.9507 89.6161 9.0073 86.8653 5.08049 82.1611C0.73509 76.9187 -0.440958 70.6996 0.137099 64.0619C0.974287 54.4542 4.70176 45.883 9.74482 37.85C12.1766 33.983 15.0071 30.3751 17.6184 26.6476C18.0968 25.9699 18.6349 25.7905 19.4522 25.7905C29.8971 25.8105 40.342 25.8105 50.7869 25.8304C51.2254 25.8304 51.8234 25.9699 52.0826 26.2689C58.6804 34.3817 64.2616 43.1123 67.6303 53.0988C69.3047 58.0621 70.1818 63.145 70.0622 68.4273C69.8628 77.4769 64.2018 85.7291 55.9695 88.5596C54.335 89.1178 52.541 89.3968 50.8268 89.4367C45.5445 89.5363 40.2822 89.4765 35 89.4765ZM31.8505 70.4006C31.8505 71.3574 31.8505 72.2345 31.8505 73.0916C31.8505 73.3906 31.8505 73.6896 31.8904 73.9886C32.1695 75.6231 33.6047 76.8191 35.1594 76.7393C36.8537 76.6596 38.1494 75.3042 38.2092 73.5301C38.249 72.4936 38.2092 71.4372 38.2092 70.4206C38.847 70.3209 39.3454 70.2611 39.8437 70.1814C44.2688 69.5236 47.7571 65.4174 47.7571 60.8328C47.777 56.2083 44.2688 51.9626 39.7839 51.4643C37.1926 51.1852 34.5614 51.3048 31.9502 51.245C30.0366 51.2051 28.6613 49.8696 28.6613 48.0159C28.6812 46.2219 30.0566 44.9063 31.9303 44.8864C33.6844 44.8664 35.4584 44.9661 37.1926 44.8664C39.0264 44.7668 40.3819 45.305 41.3187 46.9793C41.9765 48.1753 43.5313 48.5939 44.807 48.1753C46.1425 47.7567 46.9797 46.6006 46.9996 45.1854C47.0196 43.6904 46.0827 42.6539 45.2057 41.6373C43.3718 39.5642 40.9799 38.6473 38.2092 38.4679C38.2092 37.5111 38.2092 36.6142 38.2092 35.7371C38.1892 33.6242 36.8936 32.1492 35.0398 32.1292C33.1861 32.1093 31.8505 33.5843 31.8306 35.6773C31.8306 36.5942 31.8306 37.5111 31.8306 38.4281C31.2326 38.5078 30.7542 38.5875 30.2559 38.6673C25.771 39.3251 22.2628 43.4512 22.2827 48.0757C22.3026 52.6602 25.751 56.886 30.1961 57.3844C32.8073 57.6834 35.4784 57.5638 38.1295 57.6036C39.9832 57.6435 41.3586 58.979 41.3586 60.773C41.3586 62.567 40.0032 63.9423 38.1295 63.9623C36.1361 63.9822 34.1428 63.9224 32.1695 63.9822C30.6944 64.0221 29.6579 63.4241 28.9005 62.1683C27.9237 60.5338 26.07 60.0753 24.5351 60.9923C22.9803 61.9092 22.5618 63.8427 23.5584 65.4971C25.4321 68.6067 28.2028 70.1415 31.8505 70.4006Z" fill="#FFFFFF" stroke="#462B34" stroke-width="2px" mask="url(#path-3-inside-1_2936_1331)"></path><mask id="path-4-inside-2_2936_1331" fill="#FFFFFF"><path d="M35.0199 19.4115C30.3755 19.4115 25.7311 19.4115 21.1067 19.4314C20.5486 19.4314 20.2097 19.2919 19.9506 18.7537C17.7181 14.209 15.4656 9.68419 13.1933 5.15939C12.5953 3.96341 12.5355 2.8073 13.3129 1.69105C14.0305 0.65453 15.067 0.156205 16.3228 0.355535C16.8809 0.435267 17.4789 0.674464 17.9373 1.01332C22.5419 4.42187 28.5018 4.42187 33.0665 0.993392C34.3023 0.0764727 35.8571 -0.0231924 37.0132 0.973459C40.8802 4.34214 48.2156 4.36207 52.1424 1.01332C53.3384 -0.00325939 54.9131 0.0565397 56.0891 0.973459C57.2652 1.89038 57.7037 3.42522 57.026 4.8006C54.7138 9.52473 52.3617 14.2289 49.9697 18.9132C49.8302 19.1723 49.292 19.3716 48.9332 19.3716C44.3087 19.4314 39.6643 19.4115 35.0199 19.4115Z" fill="#FFFFFF"></path></mask><path d="M35.0199 19.4115C30.3755 19.4115 25.7311 19.4115 21.1067 19.4314C20.5486 19.4314 20.2097 19.2919 19.9506 18.7537C17.7181 14.209 15.4656 9.68419 13.1933 5.15939C12.5953 3.96341 12.5355 2.8073 13.3129 1.69105C14.0305 0.65453 15.067 0.156205 16.3228 0.355535C16.8809 0.435267 17.4789 0.674464 17.9373 1.01332C22.5419 4.42187 28.5018 4.42187 33.0665 0.993392C34.3023 0.0764727 35.8571 -0.0231924 37.0132 0.973459C40.8802 4.34214 48.2156 4.36207 52.1424 1.01332C53.3384 -0.00325939 54.9131 0.0565397 56.0891 0.973459C57.2652 1.89038 57.7037 3.42522 57.026 4.8006C54.7138 9.52473 52.3617 14.2289 49.9697 18.9132C49.8302 19.1723 49.292 19.3716 48.9332 19.3716C44.3087 19.4314 39.6643 19.4115 35.0199 19.4115Z" fill="#FFFFFF" stroke="#462B34" stroke-width="2px" mask="url(#path-4-inside-2_2936_1331)"></path></svg>