<svg width="65" height="65" fill="none" xmlns="http://www.w3.org/2000/svg"><path d="M26.314 5.433a9.374 9.374 0 0 1 12.372 0l2.85 2.503a9.373 9.373 0 0 0 4.536 2.184l3.733.668a9.374 9.374 0 0 1 7.714 9.672l-.18 3.789a9.373 9.373 0 0 0 1.12 4.908l1.806 3.335a9.374 9.374 0 0 1-2.753 12.062l-3.074 2.22a9.374 9.374 0 0 0-3.14 3.937l-1.48 3.492A9.374 9.374 0 0 1 38.67 59.57l-3.654-1.018a9.373 9.373 0 0 0-5.034 0l-3.654 1.018a9.374 9.374 0 0 1-11.146-5.367L13.7 50.71a9.373 9.373 0 0 0-3.139-3.936l-3.074-2.221a9.374 9.374 0 0 1-2.753-12.062l1.806-3.335a9.374 9.374 0 0 0 1.12-4.908l-.18-3.789a9.374 9.374 0 0 1 7.714-9.672l3.733-.668a9.373 9.373 0 0 0 4.537-2.184l2.85-2.503Z" fill="#FFF5B7"></path><path d="M3 31.063c.047-.142.107-.284.154-.438.428-1.325 1.615-2.26 3.004-2.26 5.747-.011 11.493-.023 17.24 0 1.768.012 3.122 1.444 3.146 3.254.023 1.041 0 2.07 0 3.148H40.09v-2.864c0-2.248 1.317-3.561 3.573-3.561h16.408c2.244 0 3.562 1.313 3.562 3.561v15.465c0 .864-.166 1.017-1.044 1.017H45.112c-.012.249-.036.45-.036.663v4.84c0 .78-.166.946-.938.946H22.52c-.807 0-.95-.166-.95-.982v-5.455h-.736c-5.568 0-11.137 0-16.705-.023-.38 0-.76-.213-1.128-.332V31.063Zm27.628 5.135c-2.137 0-4.167-.059-6.198.024-.878.035-1.484.876-1.484 1.787-.012 4.957 0 9.915-.012 14.873 0 .414.107.603.57.603 6.554-.012 13.108-.012 19.662 0 .391 0 .558-.118.57-.544.023-2.083.106-4.165.106-6.248 0-2.816-.047-5.62-.083-8.436-.012-1.408-.7-2.106-2.101-2.118-1.662-.012-3.313 0-4.975 0-.19 0-.38.024-.617.047.035.237.06.403.095.58.498 2.19.985 4.366 1.496 6.555.095.415.035.722-.25 1.03-1.151 1.242-2.28 2.508-3.43 3.75-.488.521-.808.533-1.283.012a175.854 175.854 0 0 1-3.455-3.81c-.19-.224-.273-.65-.214-.958.226-1.195.523-2.378.796-3.562.273-1.183.534-2.342.807-3.585Zm-13.179-6.555c.036.213.048.332.071.45.51 2.248 1.021 4.484 1.544 6.72.107.45.024.782-.285 1.125-1.116 1.195-2.208 2.413-3.313 3.62-.51.568-.842.556-1.365-.011-1.092-1.195-2.173-2.402-3.277-3.574-.356-.378-.427-.745-.309-1.23.428-1.763.82-3.526 1.223-5.29.131-.58.262-1.17.392-1.822H6.55c-1.472 0-2.232.758-2.244 2.213v14.59c0 .212.024.413.024.614.118.024.178.048.237.048 5.485 0 10.982 0 16.468.012.38 0 .475-.154.475-.485 0-.864.023-1.728.023-2.592.012-2.023-.023-4.058.024-6.081.036-1.74 1.294-3.006 3.004-3.148.214-.012.427-.035.677-.059 0-1.171.06-2.307-.024-3.443-.06-.947-.89-1.621-1.864-1.657-.451-.012-.914 0-1.365 0h-4.536Zm27.664 17.441h17.215c.012-.142.036-.26.036-.367 0-5.04.012-10.08.012-15.11 0-1.16-.831-1.94-2.007-1.952-1.436-.012-2.885 0-4.321 0h-1.496c.035.213.059.343.083.473.51 2.225 1.009 4.45 1.531 6.674.107.461.036.816-.296 1.183-1.105 1.183-2.185 2.39-3.277 3.573-.547.592-.855.592-1.401-.011-1.093-1.195-2.173-2.39-3.277-3.574-.32-.343-.416-.674-.297-1.124.261-1.053.499-2.106.736-3.16.297-1.312.594-2.638.914-3.998-2.113 0-4.167-.048-6.221.023-.82.024-1.532.77-1.58 1.598-.07 1.136-.023 2.271-.023 3.42.154.023.261.058.38.07 2.22.237 3.3 1.42 3.3 3.656v4.84c-.011 1.23-.011 2.484-.011 3.786Zm-11.778-.248c.974-1.065 1.888-2.036 2.778-3.041.119-.142.202-.403.166-.58-.498-2.26-1.02-4.52-1.555-6.78-.035-.154-.297-.355-.475-.367-.593-.035-1.187.012-1.78-.012-.357-.011-.476.154-.547.462-.499 2.2-1.01 4.413-1.508 6.614-.035.178-.035.438.06.544.926 1.053 1.875 2.083 2.861 3.16ZM14.79 40.387c.973-1.065 1.923-2.083 2.85-3.124.094-.118.106-.366.07-.532a422.813 422.813 0 0 0-1.543-6.709c-.036-.154-.285-.355-.451-.367a13.475 13.475 0 0 0-1.829.012c-.166.012-.427.201-.463.355a328.347 328.347 0 0 0-1.555 6.768c-.036.154-.012.379.083.473.914 1.041 1.864 2.06 2.838 3.124Zm37.102 0c.985-1.077 1.947-2.106 2.885-3.16.083-.094.083-.295.06-.425-.511-2.26-1.022-4.52-1.568-6.768-.035-.154-.273-.367-.439-.379a14.363 14.363 0 0 0-1.888.012c-.154.012-.38.201-.415.343a431.665 431.665 0 0 0-1.556 6.768c-.035.166 0 .402.107.52a208.18 208.18 0 0 0 2.814 3.089Z" fill="#462B34"></path><path d="M33.346 31.288a6.467 6.467 0 0 1-6.482-6.401c-.036-3.502 2.885-6.437 6.423-6.449 3.574-.023 6.518 2.876 6.518 6.425 0 3.526-2.909 6.425-6.459 6.425Zm.036-1.278c2.778.024 5.117-2.307 5.14-5.111.024-2.793-2.303-5.17-5.069-5.183-2.933-.012-5.295 2.284-5.307 5.135 0 2.84 2.339 5.136 5.236 5.16ZM51.938 12.002c3.657.094 6.471 3.017 6.388 6.602-.095 3.526-3.075 6.319-6.637 6.224-3.61-.107-6.364-3.005-6.269-6.626.084-3.467 3.052-6.283 6.518-6.2Zm-5.235 6.437c.011 2.863 2.327 5.123 5.235 5.135 2.802.011 5.118-2.367 5.106-5.207-.012-2.768-2.34-5.111-5.082-5.111-2.932 0-5.271 2.307-5.26 5.183ZM14.791 12.002c3.586.012 6.47 2.9 6.447 6.472-.012 3.538-2.933 6.378-6.495 6.366-3.573-.023-6.423-2.875-6.423-6.425.024-3.55 2.921-6.425 6.471-6.413Zm5.177 6.437c.011-2.816-2.292-5.17-5.07-5.183-2.897-.011-5.248 2.272-5.272 5.112-.023 2.887 2.268 5.17 5.224 5.206 2.767.036 5.106-2.319 5.118-5.135Z" fill="#462B34"></path><path d="M30.627 36.198a592.805 592.805 0 0 0-.807 3.574c-.273 1.183-.57 2.366-.796 3.561-.059.296.024.734.214.959 1.116 1.301 2.291 2.555 3.455 3.81.487.52.796.508 1.282-.012 1.152-1.243 2.28-2.509 3.431-3.751.285-.308.345-.615.25-1.03-.51-2.177-.998-4.366-1.496-6.555-.036-.165-.06-.343-.095-.58.237-.023.427-.047.617-.047 1.662 0 3.313-.012 4.975 0 1.401.012 2.09.71 2.101 2.118.024 2.816.084 5.62.084 8.437 0 2.082-.084 4.165-.107 6.247 0 .426-.166.544-.57.544-6.554-.011-13.108-.011-19.662 0-.45 0-.57-.177-.57-.603.012-4.958 0-9.915.012-14.873 0-.911.606-1.751 1.485-1.787 2.03-.07 4.06-.012 6.197-.012Z" fill="#B9C8FF"></path><path d="M17.448 29.644h4.559c.45 0 .914-.012 1.365 0 .974.036 1.793.698 1.864 1.657.083 1.136.024 2.271.024 3.443-.25.023-.463.035-.677.059-1.71.142-2.968 1.408-3.004 3.147-.047 2.024-.012 4.059-.024 6.082 0 .864-.035 1.728-.023 2.591 0 .344-.095.497-.475.486-5.485-.012-10.982-.012-16.468-.012-.059 0-.118-.024-.237-.048-.012-.2-.024-.402-.024-.615v-14.59c0-1.454.76-2.212 2.244-2.212h5.58c-.142.651-.26 1.23-.391 1.822-.404 1.764-.796 3.526-1.223 5.29-.12.485-.048.851.308 1.23 1.104 1.171 2.185 2.378 3.277 3.573.523.568.843.568 1.366.012 1.104-1.207 2.196-2.425 3.312-3.62.32-.344.392-.687.285-1.124-.522-2.237-1.033-4.485-1.543-6.721-.048-.107-.06-.225-.095-.45Z" fill="#B6ECCC"></path><path d="M45.111 47.085v-8.65c0-2.236-1.08-3.419-3.3-3.656a2.975 2.975 0 0 1-.38-.07c0-1.148-.06-2.284.023-3.42.048-.828.76-1.574 1.58-1.597 2.042-.06 4.096-.024 6.22-.024a428.344 428.344 0 0 1-.913 4 151.816 151.816 0 0 1-.736 3.158c-.107.45-.012.781.296 1.124 1.104 1.184 2.185 2.379 3.277 3.574.546.603.855.603 1.401.012 1.093-1.195 2.161-2.402 3.277-3.574.333-.355.416-.71.297-1.183-.523-2.224-1.021-4.449-1.532-6.673-.035-.13-.047-.26-.083-.474h1.496c1.437 0 2.885-.011 4.322 0 1.175.012 1.994.793 2.006 1.953.012 5.04 0 10.08-.012 15.11 0 .118-.023.224-.035.366-5.699.024-11.386.024-17.204.024Z" fill="#FCB2B2"></path><path d="M33.333 46.838c-.985-1.077-1.935-2.107-2.861-3.148-.095-.118-.095-.378-.06-.544.5-2.2 1.01-4.413 1.508-6.614.072-.308.19-.473.547-.462.593.024 1.187-.035 1.78.012.167.012.428.213.475.367.547 2.26 1.057 4.52 1.556 6.78a.747.747 0 0 1-.166.58c-.891.994-1.805 1.964-2.779 3.029ZM14.788 40.388c-.973-1.065-1.923-2.095-2.85-3.136-.094-.106-.118-.331-.082-.473.51-2.26 1.02-4.52 1.555-6.768.036-.154.297-.343.463-.355a13.475 13.475 0 0 1 1.828-.012c.167.012.416.213.452.367a455.035 455.035 0 0 1 1.543 6.709c.036.165.024.414-.071.532a135.558 135.558 0 0 1-2.838 3.136ZM51.891 40.386c-.962-1.053-1.9-2.07-2.814-3.1-.107-.118-.142-.367-.107-.52.499-2.26 1.021-4.52 1.556-6.769.035-.142.273-.331.415-.343.63-.035 1.259-.047 1.888-.012.154.012.404.225.44.379a622.375 622.375 0 0 1 1.567 6.768c.035.13.023.343-.06.426-.95 1.065-1.911 2.106-2.885 3.17Z" fill="#C4C4C4"></path><path d="M33.38 30.01c-2.897-.023-5.236-2.319-5.236-5.159.012-2.863 2.375-5.146 5.308-5.135 2.766.012 5.093 2.402 5.07 5.183-.012 2.804-2.363 5.135-5.142 5.111ZM46.703 18.44c-.012-2.876 2.327-5.183 5.26-5.183 2.742 0 5.07 2.331 5.081 5.112.024 2.84-2.303 5.218-5.105 5.206-2.909 0-5.224-2.272-5.236-5.135ZM19.966 18.44c-.012 2.816-2.35 5.17-5.117 5.135-2.956-.036-5.248-2.32-5.224-5.206.024-2.84 2.375-5.124 5.272-5.112 2.778.024 5.081 2.367 5.07 5.183Z" fill="#F4D4B5"></path><path d="M30.919 12.781a5.107 5.107 0 0 1 1.48 2.795 5.063 5.063 0 0 1 1.38-2.845 5.063 5.063 0 0 1 2.796-1.48 5.15 5.15 0 0 1-2.846-1.38 5.022 5.022 0 0 1-1.48-2.796 5.064 5.064 0 0 1-1.38 2.846 5.064 5.064 0 0 1-2.796 1.48 4.98 4.98 0 0 1 2.846 1.38Z" fill="#FCB2B2"></path></svg>