<svg width="104" height="104" fill="none" xmlns="http://www.w3.org/2000/svg" xmlns:xlink="http://www.w3.org/1999/xlink" style="transform: rotate(170.388deg);"><circle cx="52" cy="52" r="51.789" stroke="#462B34" stroke-width="0.422px" fill="none"></circle><circle cx="52.004" cy="52.001" r="30.286" fill="#462B34"></circle><path d="m51.984 89.135-.434 7.666-3.053-.173c-.689-.039-1.205-.266-1.548-.682-.352-.41-.508-.954-.47-1.635.039-.681.256-1.209.652-1.583.388-.367.926-.532 1.614-.493l2.13.121.186-3.273.923.052ZM50.83 93.17l-2.13-.12c-.367-.022-.654.058-.863.237-.215.178-.333.444-.353.795l-.032.571c-.02.352.067.628.261.83.187.202.463.313.83.334l2.13.12.157-2.767ZM45.376 88.517l-1.695 7.489-.901-.204 1.515-6.695-3.187-.721.18-.794 4.088.925ZM35.523 85.304l-.154 2.389 2.867 1.185 1.577-1.8.864.357-5.413 6.07-1.088-.45.453-8.12.894.37Zm-.48 7.181.05.022 2.629-2.961-2.45-1.013-.23 3.953ZM32.227 83.346l-1.646 2.551-.3 5.332-.887-.573.286-4.215-.028-.017-3.724 1.995-.887-.572 4.745-2.423 1.665-2.579.776.501ZM24.97 77.309l-3.96 7.056-.667-.732 2.012-3.542 1.561-2.567-.037-.04-2.716 1.297-3.722 1.663-.644-.708 7.418-3.257.755.83ZM22.065 73.81l-.642.426-.596-.898-5.114 3.394.596.898-.641.426-1.704-2.566.642-.426.596.898 5.114-3.394-.596-.898.641-.426 1.704 2.566ZM12.424 72.83l-1.062-2.346a3.354 3.354 0 0 1-.315-1.282c-.013-.42.071-.82.253-1.201.172-.384.449-.743.83-1.076.373-.33.85-.627 1.432-.89.58-.263 1.122-.428 1.624-.494a3.285 3.285 0 0 1 1.355.087c.4.117.752.32 1.06.607.307.288.559.648.756 1.083l1.061 2.345-6.994 3.166Zm5.191-5.177a2.379 2.379 0 0 0-.499-.728 1.934 1.934 0 0 0-.712-.426 2.104 2.104 0 0 0-.863-.092c-.32.024-.652.114-1 .271l-1.142.518a2.869 2.869 0 0 0-.854.567 2.09 2.09 0 0 0-.51.714 1.817 1.817 0 0 0-.14.812c.01.286.078.572.209.86l.68 1.503 5.511-2.496-.68-1.503ZM16.66 62.948l-7.458 1.829-1.116-4.551.79-.194.897 3.653 2.5-.613-.844-3.44.79-.194.844 3.44 2.586-.634-.896-3.653.79-.194 1.116 4.55ZM15.292 53.88c.026.498-.036.953-.184 1.364a2.893 2.893 0 0 1-.706 1.06 3.635 3.635 0 0 1-1.208.712c-.49.179-1.058.285-1.702.318-.645.032-1.216-.016-1.715-.145a3.634 3.634 0 0 1-1.274-.584 2.728 2.728 0 0 1-.81-.984 3.348 3.348 0 0 1-.333-1.338 3.32 3.32 0 0 1 .196-1.353c.148-.412.383-.765.706-1.06a3.527 3.527 0 0 1 1.208-.723c.483-.178 1.046-.284 1.691-.317.645-.033 1.22.015 1.726.144.498.128.923.327 1.274.596.344.261.614.589.81.983.19.394.296.836.321 1.327Zm-.824.042a2.33 2.33 0 0 0-.222-.903 1.986 1.986 0 0 0-.542-.688 2.258 2.258 0 0 0-.815-.432 3.061 3.061 0 0 0-1.04-.113l-1.275.065a3.06 3.06 0 0 0-1.024.217 2.256 2.256 0 0 0-.767.513c-.21.209-.366.456-.47.74a2.33 2.33 0 0 0-.129.92c.017.33.091.631.223.904.13.272.312.505.542.699.23.186.501.327.814.421.313.094.66.132 1.041.112l1.275-.065a3.06 3.06 0 0 0 1.024-.217 2.35 2.35 0 0 0 .767-.501c.21-.217.366-.467.469-.751a2.33 2.33 0 0 0 .13-.921ZM19.532 33.854l-6.464-4.143 1.65-2.574c.371-.58.823-.918 1.354-1.013.53-.106 1.081.026 1.655.394.574.368.927.816 1.059 1.345.13.518.008 1.067-.364 1.648l-1.151 1.797 2.76 1.768-.499.778Zm-2.947-2.986 1.152-1.796c.198-.31.27-.598.216-.868-.05-.276-.223-.509-.52-.698l-.48-.309c-.297-.19-.581-.25-.852-.18-.268.064-.5.25-.698.559l-1.152 1.797 2.334 1.495ZM23.312 28.404l-5.69-5.154.62-.685 5.087 4.608 2.193-2.422.604.546-2.814 3.107ZM30.953 21.395l-2.005-1.307-2.44 1.915.794 2.258-.736.577-2.63-7.697.926-.726 6.852 4.382-.761.598Zm-6.02-3.945-.043.034 1.288 3.743 2.086-1.637-3.33-2.14ZM34.273 19.488 32.86 16.8l-4.498-2.88.935-.49 3.531 2.318.03-.016.09-4.223.934-.492-.22 5.323 1.43 2.716-.819.43ZM43.1 16.13 38.9 9.215l.965-.22 2.097 3.491 1.47 2.62.053-.012.204-3.003.38-4.06.932-.213-.806 8.062-1.093.25ZM47.573 15.32l-.056-.768 1.075-.078-.445-6.122-1.076.079-.056-.768 3.072-.224.056.768-1.075.078.446 6.122 1.075-.078.056.768-3.072.223ZM53.163 7.4l2.564.226c.474.042.898.16 1.271.356.373.195.68.465.922.81.25.339.427.756.53 1.25.104.489.128 1.05.072 1.686-.056.635-.179 1.188-.367 1.657a3.286 3.286 0 0 1-.742 1.138c-.298.29-.647.498-1.049.625-.401.126-.84.169-1.314.127l-2.564-.227.677-7.648Zm1.959 7.064c.314.027.607.002.879-.077.273-.086.513-.223.721-.411.208-.188.376-.423.504-.707.136-.29.221-.624.255-1.004l.11-1.25c.034-.379.009-.72-.075-1.022a2.092 2.092 0 0 0-.371-.795 1.817 1.817 0 0 0-.64-.52 2.236 2.236 0 0 0-.85-.24l-1.644-.146-.533 6.026 1.644.146ZM59.689 15.946l2.069-7.394 4.512 1.263-.219.784-3.623-1.014-.693 2.48 3.41.954-.219.783-3.41-.954-.718 2.563 3.623 1.014-.22.784-4.512-1.263ZM68.258 19.21a3.475 3.475 0 0 1-1.098-.83 2.895 2.895 0 0 1-.577-1.136 3.633 3.633 0 0 1-.026-1.402c.084-.515.27-1.062.559-1.639.288-.577.61-1.052.967-1.423.357-.37.736-.645 1.136-.823a2.729 2.729 0 0 1 1.254-.222c.44.022.882.145 1.329.367.44.22.8.498 1.083.835.285.331.478.71.576 1.136.106.43.118.898.037 1.407-.082.508-.267 1.051-.555 1.629-.287.577-.612 1.055-.972 1.432a3.527 3.527 0 0 1-1.145.818 2.769 2.769 0 0 1-1.254.223 3.444 3.444 0 0 1-1.314-.372Zm.368-.739c.295.148.594.23.895.25.302.02.59-.025.866-.134.282-.105.54-.27.777-.497a3.06 3.06 0 0 0 .609-.852l.57-1.142a3.06 3.06 0 0 0 .313-.999 2.257 2.257 0 0 0-.07-.92 1.984 1.984 0 0 0-.414-.772 2.327 2.327 0 0 0-.739-.564 2.328 2.328 0 0 0-.895-.25 2.093 2.093 0 0 0-.876.128 2.35 2.35 0 0 0-.767.503c-.235.227-.438.51-.609.852l-.569 1.142a3.06 3.06 0 0 0-.314.999 2.35 2.35 0 0 0 .06.915c.086.288.227.547.424.776.197.23.444.418.739.565ZM83.126 33.45l6.86-3.445 1.373 2.732c.31.616.37 1.177.18 1.682-.18.51-.574.917-1.183 1.223-.61.306-1.175.38-1.697.224-.512-.153-.922-.538-1.232-1.154l-.958-1.907-2.929 1.471-.415-.825Zm4.07-1.01.959 1.907c.164.328.376.537.635.628.263.098.551.068.866-.09l.511-.256c.315-.158.511-.372.59-.641.08-.263.04-.558-.125-.885l-.958-1.907-2.477 1.244ZM85.887 39.484l7.336-2.265.273.883-6.559 2.025.964 3.121-.778.24-1.236-4.004ZM88.015 49.632l2.147-1.057-.403-3.076-2.347-.47-.12-.927 7.96 1.666.153 1.167-7.265 3.657-.125-.96Zm6.464-3.164-.007-.054-3.877-.802.344 2.628 3.54-1.772ZM87.959 53.463l3.032.156 4.77-2.4-.053 1.055-3.796 1.854-.002.033 3.587 2.233-.054 1.054-4.467-2.905-3.065-.157.048-.923ZM86.347 62.764l8.09-.086-.302.943-4.073.022-3.003-.073-.017.052 2.479 1.708 3.297 2.397-.292.911-6.522-4.806.343-1.068ZM84.762 67.025l.689.344-.481.965 5.492 2.74.481-.965.69.344-1.376 2.756-.689-.344.481-.965-5.492-2.74-.481.965-.69-.344 1.376-2.756ZM88.715 75.876l-1.503 2.09a3.356 3.356 0 0 1-.955.911 2.555 2.555 0 0 1-1.167.38c-.419.042-.867-.019-1.346-.182-.472-.16-.968-.426-1.486-.798-.517-.373-.93-.76-1.237-1.162a3.285 3.285 0 0 1-.6-1.218 2.604 2.604 0 0 1-.003-1.221c.096-.41.283-.808.561-1.195l1.504-2.09 6.232 4.485Zm-7.075-1.92a2.38 2.38 0 0 0-.382.796c-.065.278-.07.555-.015.83.056.274.172.539.35.794.18.264.425.508.735.731l1.018.732c.31.223.615.375.917.457.304.093.596.121.873.086.279-.034.536-.129.774-.283.243-.15.457-.353.641-.61l.964-1.339-4.911-3.533-.964 1.34ZM78.04 77.125l5.303 5.552-3.389 3.236-.562-.588 2.72-2.599-1.777-1.861-2.562 2.447-.562-.59 2.561-2.446-1.839-1.925-2.72 2.599-.562-.589 3.388-3.236ZM70.857 82.83c.419-.27.844-.444 1.274-.52a2.894 2.894 0 0 1 1.271.083c.417.132.823.363 1.22.693.399.335.774.774 1.123 1.317.35.542.593 1.061.73 1.558.137.496.18.961.129 1.396a2.729 2.729 0 0 1-.449 1.192 3.35 3.35 0 0 1-.994.955 3.32 3.32 0 0 1-1.27.506c-.43.077-.855.049-1.272-.084a3.526 3.526 0 0 1-1.228-.686c-.396-.33-.768-.766-1.118-1.308-.35-.542-.595-1.065-.736-1.567a3.527 3.527 0 0 1-.12-1.403 2.77 2.77 0 0 1 .45-1.192c.247-.36.577-.674.99-.94Zm.447.693a2.33 2.33 0 0 0-.672.643c-.17.25-.28.52-.327.813-.053.296-.042.603.032.922.075.318.215.638.422.958l.692 1.073c.206.32.44.58.699.78.26.198.535.335.826.408.286.078.578.09.876.038.297-.052.585-.168.862-.347a2.33 2.33 0 0 0 .672-.643c.17-.25.283-.522.336-.818a2.35 2.35 0 0 0-.041-.916 3.058 3.058 0 0 0-.422-.959l-.691-1.072a3.06 3.06 0 0 0-.7-.78 2.35 2.35 0 0 0-.817-.415 2.093 2.093 0 0 0-.884-.031 2.33 2.33 0 0 0-.863.346Z" fill="#462B34"></path><circle cx="80.575" cy="22.857" r="2.286" fill="#462B34"></circle><circle cx="62.858" cy="92.572" r="2.286" fill="#462B34"></circle><circle cx="11.433" cy="41.143" r="2.286" fill="#462B34"></circle></svg>