<svg xmlns:xlink="http://www.w3.org/1999/xlink" width="283" height="265" fill="none" xmlns="http://www.w3.org/2000/svg" class="scale-[1.9] bg-custom-yellow mt-8 opacity-50 "><g opacity="0.2" stroke="#462B34" stroke-width="0.5px" fill="none"><path d="M38.852 0v264.563M79.555 0v264.563M120.258 0v264.563M160.957 0v264.563M201.656 0v264.563M18.5 0v264.563M59.2 0v264.563M99.902 0v264.563M140.605 0v264.563M181.309 0v264.563M222.008 0v264.563M242.359 0v264.563M262.711 0v264.563M282.137 13.876H-.002M282.137 54.578H-.002M282.137 95.28H-.002M282.137 135.981H-.002M282.137 176.683H-.002M282.137 217.385H-.002M282.137 258.087H-.002M282.137 34.226H-.002M282.137 74.928H-.002M282.137 115.631H-.002M282.137 156.333H-.002M282.137 197.035H-.002M282.137 237.736H-.002" stroke="#462B34" fill="none" stroke-width="0.5px"></path></g></svg>